<?xml version="1.0" encoding="UTF-8"?>
<svg id="Layer_2" data-name="Layer 2" xmlns="http://www.w3.org/2000/svg" viewBox="0 0 697 255">
  <defs>
    <style>
      .cls-1 {
        fill: #d6ae46;
      }

      .cls-1, .cls-2, .cls-3, .cls-4, .cls-5, .cls-6, .cls-7, .cls-8, .cls-9, .cls-10, .cls-11 {
        stroke-width: 0px;
      }

      .cls-2 {
        fill: #ffb900;
      }

      .cls-3 {
        fill: #ffec4a;
      }

      .cls-4 {
        fill: #f7931e;
      }

      .cls-5 {
        fill: #333;
      }

      .cls-6 {
        fill: #ccc;
      }

      .cls-7 {
        fill: #ffe607;
      }

      .cls-8 {
        fill: #a68737;
      }

      .cls-9 {
        fill: #8a6607;
      }

      .cls-10 {
        fill: #826a2b;
      }

      .cls-12 {
        opacity: .46;
      }

      .cls-11 {
        fill: #5c4b1e;
      }
    </style>
  </defs>
  <g id="fire_dark" data-name="fire dark">
    <g class="cls-12">
      <rect class="cls-4" x=".5" y=".5" width="696" height="254" rx="69.5" ry="69.5"/>
      <path class="cls-6" d="m627,1c38.05,0,69,30.95,69,69v115c0,38.05-30.95,69-69,69H70C31.95,254,1,223.05,1,185v-115C1,31.95,31.95,1,70,1h557m0-1H70C31.34,0,0,31.34,0,70v115c0,38.66,31.34,70,70,70h557c38.66,0,70-31.34,70-70v-115c0-38.66-31.34-70-70-70h0Z"/>
    </g>
    <g>
      <path class="cls-5" d="m208.23,165.48v-72.06h29.88c21.22,0,31.83,12.04,31.83,36.11s-11,35.95-32.99,35.95h-28.72Zm20.91-5.97h5.49c5.03,0,8.52-2.17,10.45-6.52,1.93-4.35,2.9-12.2,2.9-23.57s-.96-19.22-2.88-23.54c-1.92-4.33-5.41-6.49-10.48-6.49h-5.49v60.13Z"/>
      <path class="cls-5" d="m279.18,165.48v-72.06h30.99c8.06,0,14.5,1.7,19.32,5.09,4.82,3.4,7.23,7.95,7.23,13.65,0,8.73-5.17,14.41-15.52,17.05,5.31,1.97,8.75,4.14,10.32,6.49,1.57,2.36,2.63,6.93,3.19,13.73.67,8.09,2.02,13.44,4.07,16.05h-22.7c-1.44-3.34-2.17-7.51-2.17-12.51l-.11-4.28-.11-5.38c0-8.3-3.34-12.46-10.03-12.46h-3.59v34.63h-20.91Zm20.91-40.6h4.22c7.92,0,11.88-4.13,11.88-12.41s-3.96-12.41-11.88-12.41h-4.22v24.81Z"/>
      <path class="cls-5" d="m376.95,92.15c20.98,0,31.46,12.42,31.46,37.27s-10.68,37.27-32.04,37.27-32.04-12.7-32.04-38.12,10.88-36.43,32.63-36.43Zm-.58,5.75c-3.94,0-6.61,2.17-8,6.52-1.39,4.35-2.08,12.68-2.08,25s.69,20.65,2.08,25c1.39,4.35,4.06,6.52,8,6.52s6.61-2.17,8-6.52c1.39-4.35,2.08-12.68,2.08-25s-.7-20.61-2.08-24.97c-1.39-4.36-4.06-6.55-8-6.55Z"/>
      <path class="cls-5" d="m471.82,93.42v48.36c0,16.58-9.17,24.87-27.5,24.87s-27.4-8.29-27.4-24.87v-48.36h20.91v48.99c0,6.33.91,10.66,2.72,12.99,1.81,2.32,5.17,3.48,10.06,3.48,9.47,0,14.2-5.7,14.2-17.11v-48.36h7.02Z"/>
      <path class="cls-5" d="m511.36,126.57h29.67v38.91h-6.65l-2.27-4.96c-5.81,4.12-11.95,6.18-18.42,6.18-10.66,0-18.94-3.19-24.84-9.58-5.9-6.39-8.84-15.39-8.84-27s3.12-20.44,9.37-27.43c6.25-6.99,14.42-10.48,24.52-10.48,13.3,0,21.4,6.79,24.28,20.38l-9.82,4.49v-1.74l-.16-3.91c-.67-8.48-4.59-12.72-11.77-12.72-5.28,0-8.89,2.25-10.82,6.76-1.94,4.51-2.9,12.9-2.9,25.18,0,11.47.78,19.27,2.35,23.39,1.57,4.12,4.55,6.18,8.95,6.18,5.17,0,7.76-2.89,7.76-8.66v-17.74h-10.4v-7.23Z"/>
      <path class="cls-5" d="m572.17,129.63v35.85h-20.91v-72.06h20.91v28.98h17.05v-28.98h20.91v72.06h-20.91v-35.85h-17.05Z"/>
      <path class="cls-5" d="m673.11,93.42v7.23h-17.69v64.83h-22.17v-64.83h-17.79v-7.23h57.65Z"/>
    </g>
    <g>
      <g>
        <circle class="cls-7" cx="112.51" cy="96.48" r="28.29" transform="translate(-35.27 107.82) rotate(-45)"/>
        <circle class="cls-3" cx="112.51" cy="96.53" r="19.25" transform="translate(-32.09 129.17) rotate(-53.35)"/>
        <rect class="cls-7" x="111.34" y="54.12" width="2.35" height="10.65" rx="1.16" ry="1.16"/>
        <path class="cls-7" d="m142.54,66.63l-.02-.02c-.45-.45-1.19-.45-1.64,0l-5.89,5.89c-.45.45-.45,1.19,0,1.64l.02.02c.45.45,1.19.45,1.64,0l5.89-5.89c.45-.45.45-1.19,0-1.64Z"/>
        <path class="cls-7" d="m145.43,95.52h8.33c.64,0,1.16.52,1.16,1.16v.02c0,.64-.52,1.16-1.16,1.16h-8.33c-.64,0-1.16-.52-1.16-1.16v-.02c0-.64.52-1.16,1.16-1.16Z"/>
        <path class="cls-7" d="m142.4,126.73l.02-.02c.45-.45.45-1.19,0-1.64l-5.89-5.89c-.45-.45-1.19-.45-1.64,0l-.02.02c-.45.45-.45,1.19,0,1.64l5.89,5.89c.45.45,1.19.45,1.64,0Z"/>
        <path class="cls-7" d="m112.32,139.11h.02c.64,0,1.16-.52,1.16-1.16v-8.32c0-.64-.51-1.16-1.15-1.16h-.02c-.64,0-1.16.52-1.16,1.16v8.32c-.01.64.51,1.16,1.15,1.16Z"/>
        <path class="cls-7" d="m82.3,126.59l.02.02c.45.45,1.19.45,1.64,0l5.89-5.88c.45-.45.45-1.19,0-1.64l-.02-.02c-.45-.45-1.19-.45-1.64,0l-5.89,5.88c-.45.45-.45,1.19,0,1.64Z"/>
        <path class="cls-7" d="m69.93,96.51v.02c0,.64.52,1.16,1.16,1.16h8.32c.64,0,1.16-.51,1.16-1.15v-.02c0-.64-.52-1.16-1.16-1.16h-8.32c-.64,0-1.16.51-1.16,1.15Z"/>
        <path class="cls-7" d="m82.44,66.49l-.02.02c-.45.45-.45,1.19,0,1.64l5.88,5.89c.45.45,1.19.45,1.64,0l.02-.02c.45-.45.45-1.19,0-1.64l-5.88-5.89c-.45-.45-1.19-.45-1.64,0Z"/>
      </g>
      <g>
        <rect class="cls-2" x="23.07" y="190.1" width="178.93" height="17.63" rx="8.73" ry="8.73"/>
        <path class="cls-9" d="m184.95,216.14H40.12c-4.6,0-8.32-3.73-8.32-8.32v-.08h161.48v.08c0,4.6-3.73,8.32-8.32,8.32Z"/>
        <g>
          <path class="cls-8" d="m110.4,165.46c1.39-2.11,4.23-2.94,4.23-2.94v.86s-2.11,0-4.05,2.29c3.63,5.09-9.03,7.66-9.03,7.66,0,0,5.06-12.56,8.86-7.87Z"/>
          <path class="cls-11" d="m88.7,159.46c0,1.47-1.19,2.66-2.66,2.66s-2.66-1.19-2.66-2.66,1.19-2.66,2.66-2.66,2.66,1.19,2.66,2.66Z"/>
          <path class="cls-10" d="m89.85,156.94s-5.99,9.69-8.48,9.72c-2.48.03-3.38-1.34-3.36-3,.03-1.66,9.98-7.21,11.01-7.19,1.02.02.83.47.83.47Z"/>
          <path class="cls-1" d="m113.29,190.35s.6-1.79.86-3.35c.24-1.6.54-3.9.75-6.67.21-2.77.35-6.03.17-9.47-.18-3.43-.64-7.11-1.86-10.45-.62-1.65-1.38-3.26-2.48-4.53-1.08-1.26-2.37-2.36-3.91-2.89-1.51-.57-3.13-.8-4.7-.7-1.57.04-3.05.38-4.41.71-2.71.77-4.9,1.75-6.39,2.49-1.49.76-2.34,1.19-2.34,1.19,0,0,.8-.52,2.2-1.44,1.41-.91,3.49-2.13,6.2-3.24,2.69-.99,6.22-2.06,10.1-1.04,1.94.45,3.74,1.62,5.25,3.04,1.54,1.43,2.65,3.23,3.57,5.06,1.83,3.69,2.74,7.63,3.35,11.3.6,3.68.83,7.13.93,10.08.1,2.95.05,5.42-.02,7.15-.1,1.76-.16,2.76-.16,2.76h-7.12Z"/>
          <path class="cls-8" d="m89.9,156.69s2.95,11.01,1.26,12.83c-1.68,1.82-3.3,1.54-4.49.39-1.19-1.16,1.6-12.21,2.31-12.94s.91-.28.91-.28Z"/>
          <path class="cls-8" d="m88.87,156.86s-9.59,3.2-11.13,1.87-1.28-2.73-.25-3.82,10.54.62,11.16,1.19c.62.56.23.76.23.76Z"/>
          <path class="cls-11" d="m87.25,155.63c-.03.17.98.09,1.39.47l-.49,1.53c.26.21,1.53-.3,1.53-.3,0,0,.71,1.31.72,1.39.8-2.33,3.27-2.12,2.02-4-1.27-1.49-2.64.83-5.17.92Z"/>
          <path class="cls-8" d="m123.66,173.78c-1.39-2.11-4.23-2.94-4.23-2.94v.86s2.11,0,4.05,2.29c-3.63,5.09,9.03,7.66,9.03,7.66,0,0-5.06-12.56-8.86-7.87Z"/>
        </g>
        <g>
          <path class="cls-8" d="m164.46,173.62c.94-1.42,2.84-1.98,2.84-1.98v.58s-1.42,0-2.72,1.54c2.44,3.42-6.07,5.15-6.07,5.15,0,0,3.4-8.44,5.95-5.29Z"/>
          <path class="cls-11" d="m149.88,169.59c0,.99-.8,1.79-1.79,1.79s-1.79-.8-1.79-1.79.8-1.79,1.79-1.79,1.79.8,1.79,1.79Z"/>
          <path class="cls-10" d="m150.65,167.89s-4.03,6.51-5.7,6.53c-1.67.02-2.27-.9-2.26-2.02.02-1.12,6.71-4.84,7.4-4.83s.56.32.56.32Z"/>
          <path class="cls-1" d="m166.4,190.35s.4-1.2.58-2.25c.16-1.07.36-2.62.51-4.49.14-1.86.24-4.05.12-6.36-.12-2.31-.43-4.78-1.25-7.02-.42-1.11-.93-2.19-1.67-3.04-.73-.85-1.59-1.59-2.62-1.94-1.01-.38-2.11-.54-3.16-.47-1.05.02-2.05.25-2.97.48-1.82.52-3.29,1.17-4.29,1.68-1,.51-1.58.8-1.58.8,0,0,.54-.35,1.48-.97.95-.61,2.34-1.43,4.16-2.18,1.81-.67,4.18-1.39,6.79-.7,1.3.3,2.51,1.09,3.53,2.04,1.03.96,1.78,2.17,2.4,3.4,1.23,2.48,1.84,5.13,2.25,7.59.41,2.47.56,4.79.63,6.77.06,1.99.03,3.64-.01,4.8-.07,1.18-.1,1.86-.1,1.86h-4.79Z"/>
          <path class="cls-8" d="m150.68,167.73s1.98,7.4.85,8.63c-1.13,1.23-2.22,1.04-3.02.26-.8-.78,1.08-8.2,1.56-8.7.48-.49.61-.19.61-.19Z"/>
          <path class="cls-8" d="m149.99,167.84s-6.44,2.15-7.48,1.26c-1.04-.89-.86-1.83-.17-2.57.69-.73,7.08.42,7.5.8.42.38.15.51.15.51Z"/>
          <path class="cls-11" d="m148.9,167.01c-.02.11.66.06.94.31l-.33,1.03c.17.14,1.03-.2,1.03-.2,0,0,.48.88.49.93.54-1.57,2.2-1.43,1.36-2.69-.85-1-1.77.56-3.48.62Z"/>
          <path class="cls-8" d="m173.37,179.21c-.94-1.42-2.84-1.98-2.84-1.98v.58s1.42,0,2.72,1.54c-2.44,3.42,6.07,5.15,6.07,5.15,0,0-3.4-8.44-5.95-5.29Z"/>
        </g>
        <g>
          <path class="cls-8" d="m59.4,173.62c.94-1.42,2.84-1.98,2.84-1.98v.58s-1.42,0-2.72,1.54c2.44,3.42-6.07,5.15-6.07,5.15,0,0,3.4-8.44,5.95-5.29Z"/>
          <path class="cls-11" d="m44.82,169.59c0,.99-.8,1.79-1.79,1.79s-1.79-.8-1.79-1.79.8-1.79,1.79-1.79,1.79.8,1.79,1.79Z"/>
          <path class="cls-10" d="m45.59,167.89s-4.03,6.51-5.7,6.53c-1.67.02-2.27-.9-2.26-2.02.02-1.12,6.71-4.84,7.4-4.83s.56.32.56.32Z"/>
          <path class="cls-1" d="m61.34,190.35s.4-1.2.58-2.25c.16-1.07.36-2.62.51-4.49.14-1.86.24-4.05.12-6.36-.12-2.31-.43-4.78-1.25-7.02-.42-1.11-.93-2.19-1.67-3.04-.73-.85-1.59-1.59-2.62-1.94-1.01-.38-2.11-.54-3.16-.47-1.05.02-2.05.25-2.97.48-1.82.52-3.29,1.17-4.29,1.68-1,.51-1.58.8-1.58.8,0,0,.54-.35,1.48-.97.95-.61,2.34-1.43,4.16-2.18,1.81-.67,4.18-1.39,6.79-.7,1.3.3,2.51,1.09,3.53,2.04,1.03.96,1.78,2.17,2.4,3.4,1.23,2.48,1.84,5.13,2.25,7.59.41,2.47.56,4.79.63,6.77.06,1.99.03,3.64-.01,4.8-.07,1.18-.1,1.86-.1,1.86h-4.79Z"/>
          <path class="cls-8" d="m45.62,167.73s1.98,7.4.85,8.63c-1.13,1.23-2.22,1.04-3.02.26-.8-.78,1.08-8.2,1.56-8.7.48-.49.61-.19.61-.19Z"/>
          <path class="cls-8" d="m44.93,167.84s-6.44,2.15-7.48,1.26c-1.04-.89-.86-1.83-.17-2.57.69-.73,7.08.42,7.5.8.42.38.15.51.15.51Z"/>
          <path class="cls-11" d="m43.84,167.01c-.02.11.66.06.94.31l-.33,1.03c.17.14,1.03-.2,1.03-.2,0,0,.48.88.49.93.54-1.57,2.2-1.43,1.36-2.69-.85-1-1.77.56-3.48.62Z"/>
          <path class="cls-8" d="m68.31,179.21c-.94-1.42-2.84-1.98-2.84-1.98v.58s1.42,0,2.72,1.54c-2.44,3.42,6.07,5.15,6.07,5.15,0,0-3.4-8.44-5.95-5.29Z"/>
        </g>
      </g>
    </g>
  </g>
</svg>