<?xml version="1.0" encoding="UTF-8"?>
<svg id="Layer_2" data-name="Layer 2" xmlns="http://www.w3.org/2000/svg" viewBox="0 0 697 255">
  <defs>
    <style>
      .cls-1 {
        fill: #ff5e14;
      }

      .cls-1, .cls-2, .cls-3, .cls-4, .cls-5, .cls-6, .cls-7 {
        stroke-width: 0px;
      }

      .cls-3 {
        fill: #df2500;
      }

      .cls-4 {
        fill: #333;
      }

      .cls-5 {
        fill: #d61c1c;
      }

      .cls-6 {
        fill: #ccc;
      }

      .cls-8 {
        opacity: .49;
      }

      .cls-7 {
        fill: #fc0;
      }
    </style>
  </defs>
  <g id="fire_dark" data-name="fire dark">
    <g class="cls-8">
      <rect class="cls-3" x=".5" y=".5" width="696" height="254" rx="69.5" ry="69.5"/>
      <path class="cls-6" d="m627,1c38.05,0,69,30.95,69,69v115c0,38.05-30.95,69-69,69H70C31.95,254,1,223.05,1,185v-115C1,31.95,31.95,1,70,1h557m0-1H70C31.34,0,0,31.34,0,70v115c0,38.66,31.34,70,70,70h557c38.66,0,70-31.34,70-70v-115c0-38.66-31.34-70-70-70h0Z"/>
    </g>
    <g>
      <g>
        <path class="cls-5" d="m227.58,129.05c.22-2.3-1.31-4.59-3.77-5.66-.12-.05-.25-.1-.37-.15.77-3.36,1.28-7.3.86-11.65-.02-.16-.04-.32-.07-.48-.08-.4-.16-.82-.24-1.26-.47-2.49-1.05-5.59-2.35-8.74-1.4-3.44-4-8.26-4.11-8.46-.99-1.82-2.93-3.05-5.03-3.35.34-3.36,1.1-7.53,2.46-12.51.69-2.53-.91-5.3-3.76-6.47-2.85-1.17-6.05-.38-7.5,1.85-3.13,4.82-5.22,9.7-6.76,13.31-.32-.06-.64-.09-.97-.1-2.66-.1-4.93,1.34-5.59,3.55-2.01,6.75-4.47,11.1-6.64,13.88-.08-.05-.17-.1-.26-.15-.48-.27-.97-.45-1.48-.6-.65-7.56-1.62-14.49-2.87-18.3-1.07-3.26-4.09-4.84-6.75-3.56-.08.04-.16.08-.24.12-1.47-3.84-2.96-9.62-3.77-18.17-.26-2.79-1.98-5.05-4.24-5.56-.28-.06-.56-.1-.83-.11-.82-4.68-1.94-11.02-3.94-17.52-.93-3-3.52-4.7-6.08-3.98-2.55.73-4.27,3.66-4.02,6.86.5,6.27.58,11.44.43,15.54-1.81-.14-3.61.87-4.68,2.82-.12.22-2.94,5.38-4.58,9.16-1.5,3.48-2.4,7.05-3.13,9.91-.04.17-.08.33-.13.5-.3-.4-.51-.68-.54-.72-1.28-1.7-3.19-2.58-4.98-2.46-.59-3.57-1.06-8.08-1.23-13.54-.09-2.78-2.12-5.34-4.75-5.97-2.63-.63-5.05.85-5.65,3.46-1.31,5.66-1.75,11.18-2.07,15.26-.27,0-.55.04-.82.09-2.2.45-3.68,2.41-3.65,4.84.1,7.44-.77,12.48-1.83,15.82-.08-.04-.17-.07-.25-.11-2.8-1.12-5.65.27-6.37,3.1-.85,3.32-1.08,9.35-.92,15.93-.49.13-.97.29-1.41.53-.08.04-.16.09-.24.13-2.47-2.42-5.39-6.21-8.12-12.09-.89-1.92-3.31-3.17-5.97-3.09-.33.01-.65.04-.96.09-1.92-3.14-4.53-7.4-8.18-11.59-1.68-1.94-4.98-2.63-7.7-1.61-2.72,1.02-4.03,3.43-3.07,5.63,1.9,4.33,3.1,7.96,3.8,10.89-2.07.26-3.88,1.33-4.67,2.91-.09.18-2.17,4.38-3.21,7.37-.95,2.75-1.21,5.45-1.41,7.62-.04.38-.07.75-.11,1.1-.01.14-.02.28-.02.42.05,3.79.97,7.22,2.1,10.15-.12.04-.24.08-.35.13-2.35.93-3.64,2.93-3.17,4.93,2.44,10.4,9.94,23.29,12.77,26.7,3.41,3.95,3.02,13.09,2.14,17.01-.38,1.38-.55,2.68-.58,3.9-.48.07-.95.18-1.42.34-2.83.98-4.22,3.45-3.22,5.71,2.27,5.12,4.03,7.01,6.28,9.12,1.05.98,1.95,1.83,3.23,3.71,3.91,6.05,7.78,6.8,12.82,7.21,2.22.18,4.73.38,8.82,1.71.31.1.64.18.97.24,3.67.67,6.83-.28,8.34-.74h0c2.55-.1,8.84-.49,12.72-1.93.94-.35,1.8-.81,2.61-1.36,1.61,1.35,3.29,2.27,5.04,2.69,3.74.89,9.04.06,11.17-.34h0c.99.16,2.74.42,4.64.05,2.92,1.75,5.81,1.21,7.2.96h0c2.18.46,7.58,1.42,11.21.39,1.69-.48,3.27-1.54,4.71-3.09.87.62,1.79,1.16,2.77,1.56,4.05,1.65,10.39,2.1,12.95,2.22,0,0,0,0,0,0,1.57.52,4.84,1.62,8.43.85.33-.07.64-.16.94-.28,3.93-1.53,6.42-1.76,8.61-1.97,4.99-.47,8.77-1.33,11.94-8.27,1.04-2.16,1.84-3.14,2.77-4.26,1.99-2.42,3.52-4.59,5.16-10.47.72-2.6-.97-5.43-3.92-6.55-.48-.18-.97-.31-1.46-.39-.18-1.4-.52-2.9-1.06-4.48-1.35-4.5-2.87-15,.06-19.53,2.41-3.92,8.33-18.71,9.5-30.66Z"/>
        <path class="cls-1" d="m212.14,194.56c-1.18-.85,2.84-6.33.05-14.29-1.51-5.02-2.46-8.35-1.89-12.47,2.12-7.04,9.5-21.98,11.22-39.67-1.69,1.67-4,6.17-6.44,5.09-2.44-1.08,4.29-9.96,3.16-21.66-.5-2.51-1-5.87-2.31-9.08-1.31-3.21-3.86-7.94-3.86-7.94,0,0,2.88,9.64.19,9.69-9.24-1.3-5.87-19.45-3.22-29.14-8.02,12.34-8.82,25.41-12.77,15.59-4.59,15.36-10.45,22.92-13.15,24.23-2.7,1.31-4.54-4.88-2.58-7.88-1.22,1.77-2.3,4.06-3.25,6.67-.03-10.4-.87-21.13-3-27.58,1.25,4.04-1.11,11.02-3.21,8.82-2.1-2.2-6.05-12.63-7.89-32.09-4.62,10.82-3.58-5-8.71-21.66.97,12.22,1.41,34.73-6.54,34.11-2.26-.7,1.43-11.56,1.43-11.56,0,0-2.77,5.06-4.3,8.59s-2.39,7.44-3.14,10.32c-.91,5.03-.88,9.86-.59,13.99-.9-2.18-1.98-4.7-3.43-7.03-1.9-3.07-5.22-7.48-5.22-7.48,0,0,4.85,9.45,2.67,10.06-7.89.54-9.85-19.07-10.19-29.71-3.36,14.51-.62,28.29-6.4,18.86.23,16.95-2.6,26.03-4.47,27.95-1.87,1.92-4.98-4.16-4.16-7.68-1.44,5.62-1.13,14.96-.05,24.02-1.23-2.27-2.56-4.27-3.96-5.81,2.27,2.61,1.1,8-1.74,6.86-2.84-1.14-9.51-7.73-15.74-21.1-2.9,8.55-5.1-2.83-14.44-13.58,3.69,8.43,9,24.24-.11,25.38-2.69-.05-.85-8.44-.85-8.44,0,0-2.05,4.12-3.02,6.91-.97,2.79-1.1,5.72-1.34,7.9.12,10.19,7.8,17.92,5.47,18.86-2.33.94-5.11-2.98-6.99-4.43,3.61,15.41,12.59,28.41,15.46,34.55,1.01,3.59.42,6.49-.56,10.86-1.94,6.93,2.66,11.71,1.57,12.45-1.08.74-4.7-1.8-7.01-4.86,3.5,7.92,5.26,6.43,9.17,12.22,4.57,7.1,6.31,2.73,18.6,6.74,2.67.49,5.12-.85,5.97-.83.85.02,7.88-.32,11.06-1.5,2.48-.92,3.83-3.29,4.69-5.66,1.64,2.62,3.71,5.15,6.12,5.73,3.07.73,8.95-.31,9.64-.5.69-.19,3.22.87,5.21-.25.45-.39.89-.72,1.31-1.05.46.36.92.74,1.41,1.18,2.13,1.28,4.53.06,5.24.29.71.22,6.72,1.42,9.7.58,2.34-.66,8.2-1.14,10.8-.08,3.33,1.36,10.4,1.75,11.25,1.73.85-.02,3.46,1.51,6.07.95,11.8-4.6,14.07.41,17.77-7.73,3.2-6.65,5.14-4.94,7.67-14.04-1.94,3.52-5.24,6.44-6.42,5.58Z"/>
        <path class="cls-7" d="m207.94,196.48c-.98-.71,2.38-5.3.04-11.97-1.27-4.21-2.33-13.09-2.63-19.81,1.77-5.9,8.32-7.88,9.76-22.69-1.42,1.4-8.27,7.97-10.32,7.07-2.05-.9,9.84-15.01,8.9-24.81-.42-2.1-.83-4.91-1.93-7.6-1.1-2.69-3.23-6.65-3.23-6.65,0,0,2.41,8.07.16,8.12-7.74-1.09-4.92-16.29-2.69-24.4-6.72,10.34-7.39,21.28-10.7,13.05-3.84,12.86-9.29,21.79-11.55,22.88-2.26,1.1-3.27-6.68-1.63-9.19-7.05,9.42-5.96,27.59-4.12,32.78.75,2.13-.37,3.69-1.89,4.61-.04-5.82-1.16-11.26-.86-9.08.47,3.46-7.12-.97-4.89-6.74,2.23-5.77,5.54-27.26.84-40.19,1.05,3.39-.82,12.46-2.58,10.61-1.76-1.84-5.17-13.81-6.72-30.1-3.87,9.06-2.99-4.19-7.29-18.14.81,10.23,1.18,29.08-5.48,28.56-1.89-.59,1.2-9.68,1.2-9.68,0,0-2.32,4.24-3.6,7.19-1.28,2.96-2,6.23-2.63,8.64-2.08,11.5,6.08,31.18,4.23,31.78-1.23.4-3.84-3.7-5.73-7.07.28-3.83.17-7.7-.88-10.87-.89-2.1-1.96-4.95-3.55-7.53-1.59-2.57-4.37-6.26-4.37-6.26,0,0,4.06,7.92,2.23,8.43-6.61.45-8.25-15.97-8.53-24.88-2.81,12.15-.52,23.69-5.36,15.8.2,14.19-1.94,24.61-3.5,26.22-1.56,1.6-4.4-6.29-3.72-9.24-3.32,11.26,2.28,29.98,5.13,35.01,2.85,5.03-4.27,8.89-4.17,5.87.06-1.89-.48,2.84.11,7.91-1.61-.81-2.91-2.16-2.38-4.02,1.28-4.52.43-20.34-7.62-28.55,1.9,2.18,1.73,8.96-.65,8-2.38-.95-8.78-8.73-13.99-19.93-2.43,7.16-4.27-2.37-12.09-11.37,3.09,7.06,7.53,20.3-.09,21.25-2.26-.04-.71-7.07-.71-7.07,0,0-1.71,3.45-2.52,5.79-.81,2.34-.92,4.79-1.12,6.62.1,8.53,13.5,20.82,11.55,21.6-1.95.79-9.51-4.93-11.07-6.16,3.02,12.9,9.78,14.63,12.18,19.76.42,5.85.3,13.59-.51,17.25-1.62,5.81,2.23,9.8,1.32,10.42s-3.93-1.5-5.87-4.07c2.93,6.63,4.41,5.38,7.68,10.24,3.83,5.94,5.28,2.29,15.57,5.64,2.24.41,4.29-.71,5-.7.71.01,6.6-.27,9.26-1.26s3.79-3.98,4.45-6.39c.2-.74.85-1.51,1.69-2.24.66.53,1.2,1.11,1.55,1.73,1.5,2.69,3.61,5.97,6.18,6.58,2.57.61,7.5-.26,8.07-.42.58-.16,2.7.73,4.37-.21.89-.76,1.7-1.36,2.46-1.84.74.52,1.52,1.13,2.39,1.9,1.78,1.07,3.79.05,4.39.24s5.63,1.19,8.13.48c2.5-.7,9.49-3.05,13.9.37,2.79,1.14,8.71,1.46,9.42,1.45.71-.02,2.9,1.27,5.09.8,9.88-3.85,11.78.35,14.88-6.48,2.68-5.57,4.3-4.14,6.43-11.75-1.62,2.95-4.39,5.39-5.37,4.68Z"/>
      </g>
      <path class="cls-2" d="m149.97,176.25l28.34,10.08-28.44-12.01-.39-16.18,23.73,8.27-23.84-10.25-.37-15.4,22,7.58-22.1-9.66-.35-14.89,18.56,6.22-18.66-8.05-.22-9.95c-.01-.37-.23-.66-.5-.66h0c-.27,0-.49.29-.5.66l-.22,9.95-18.66,8.05,18.56-6.22-.36,15-22.1,9.54,22-7.58-.37,15.4-23.84,10.25,23.73-8.27-.39,16.18-28.44,12.01,28.34-10.08-.45,20.33c-.1,3.56.55,3.07,1.43,3.07h2.53c.88,0,1.53.48,1.43-3.07l-.45-20.33Z"/>
      <path class="cls-2" d="m189.52,183.03l18.6,6.61-18.67-7.88-.25-10.62,15.58,5.43-15.64-6.73-.24-10.1,14.44,4.97-14.51-6.34-.23-9.77,12.18,4.08-12.25-5.28-.14-6.53c0-.24-.15-.43-.33-.43h0c-.18,0-.32.19-.33.43l-.14,6.53-12.25,5.28,12.18-4.08-.23,9.85-14.5,6.26,14.44-4.97-.24,10.1-15.64,6.73,15.58-5.43-.25,10.62-18.67,7.88,18.6-6.61-.3,13.34c-.06,2.33.36,2.02.94,2.02h1.66c.58,0,1,.32.94-2.02l-.3-13.34Z"/>
      <path class="cls-2" d="m108.13,182.59l18.6,6.61-18.67-7.88-.25-10.62,15.58,5.43-15.64-6.73-.24-10.1,14.44,4.97-14.51-6.34-.23-9.77,12.18,4.08-12.25-5.28-.14-6.53c0-.24-.15-.43-.33-.43h0c-.18,0-.32.19-.33.43l-.14,6.53-12.25,5.28,12.18-4.08-.23,9.85-14.5,6.26,14.44-4.97-.24,10.1-15.64,6.73,15.58-5.43-.25,10.62-18.67,7.88,18.6-6.61-.3,13.34c-.06,2.33.36,2.02.94,2.02h1.66c.58,0,1,.32.94-2.02l-.3-13.34Z"/>
      <path class="cls-2" d="m192.72,196.43h-91.55c-3.54,0-6.41,2.87-6.41,6.41v.06h104.36v-.06c0-3.54-2.87-6.41-6.41-6.41Z"/>
    </g>
    <g>
      <path class="cls-4" d="m358.7,72.71v10.71h-38.7v35.57h32.84v10.71h-32.84v49.73h-30.96v-106.72h69.66Z"/>
      <path class="cls-4" d="m400.13,72.71v106.72h-30.96v-106.72h30.96Z"/>
      <path class="cls-4" d="m418.66,179.43v-106.72h45.89c11.93,0,21.47,2.52,28.62,7.54,7.14,5.03,10.71,11.77,10.71,20.21,0,12.93-7.66,21.34-22.99,25.25,7.87,2.92,12.96,6.13,15.29,9.62,2.32,3.49,3.9,10.27,4.73,20.33.99,11.99,3,19.91,6.02,23.77h-33.62c-2.14-4.95-3.21-11.13-3.21-18.53l-.16-6.33-.16-7.98c0-12.3-4.95-18.45-14.86-18.45h-5.32v51.29h-30.96Zm30.96-60.12h6.25c11.73,0,17.59-6.12,17.59-18.37s-5.86-18.37-17.59-18.37h-6.25v36.75Z"/>
      <path class="cls-4" d="m588.95,72.71v10.71h-38.23v32.29h32.13v10.71h-32.13v42.3h44.72v10.71h-75.68v-106.72h69.19Z"/>
    </g>
  </g>
</svg>