<?xml version="1.0" encoding="UTF-8"?>
<svg id="Layer_2" data-name="Layer 2" xmlns="http://www.w3.org/2000/svg" viewBox="0 0 697 255">
  <defs>
    <style>
      .cls-1 {
        fill: #ff5e14;
      }

      .cls-1, .cls-2, .cls-3, .cls-4, .cls-5, .cls-6, .cls-7, .cls-8, .cls-9, .cls-10, .cls-11, .cls-12, .cls-13, .cls-14, .cls-15, .cls-16, .cls-17 {
        stroke-width: 0px;
      }

      .cls-2 {
        fill: #b3ebff;
      }

      .cls-3 {
        fill: #0bf;
      }

      .cls-4 {
        fill: #210b06;
      }

      .cls-6 {
        opacity: .3;
      }

      .cls-7 {
        fill: #006dff;
      }

      .cls-8 {
        opacity: .2;
      }

      .cls-9 {
        fill: #333;
      }

      .cls-10 {
        fill: #d61c1c;
      }

      .cls-11 {
        fill: #8f311c;
      }

      .cls-12 {
        fill: #ccc;
      }

      .cls-13 {
        fill: #94360c;
      }

      .cls-14 {
        fill: #fff;
      }

      .cls-15 {
        fill: #38acff;
      }

      .cls-18 {
        opacity: .69;
      }

      .cls-19 {
        opacity: .73;
      }

      .cls-16 {
        fill: #663f30;
      }

      .cls-17 {
        fill: #fc0;
      }
    </style>
  </defs>
  <g id="fire_dark" data-name="fire dark">
    <g class="cls-19">
      <g class="cls-18">
        <rect class="cls-7" x=".5" y=".5" width="696" height="254" rx="69.5" ry="69.5"/>
        <path class="cls-12" d="m627,1c38.05,0,69,30.95,69,69v115c0,38.05-30.95,69-69,69H70C31.95,254,1,223.05,1,185v-115C1,31.95,31.95,1,70,1h557m0-1H70C31.34,0,0,31.34,0,70v115c0,38.66,31.34,70,70,70h557c38.66,0,70-31.34,70-70v-115c0-38.66-31.34-70-70-70h0Z"/>
      </g>
    </g>
    <g>
      <g>
        <g>
          <rect class="cls-1" x="160.11" y="42.55" width="14.38" height="39.44" transform="translate(-.12 .31) rotate(-.11)"/>
          <rect class="cls-13" x="168.22" y="52.83" width="4.46" height="2.13" transform="translate(-.1 .31) rotate(-.1)"/>
          <rect class="cls-13" x="165.99" y="55.84" width="4.46" height="2.13" transform="translate(-.1 .31) rotate(-.1)"/>
          <rect class="cls-13" x="168.24" y="63.11" width="4.46" height="2.13" transform="translate(-.12 .32) rotate(-.11)"/>
          <rect class="cls-13" x="161.33" y="49.65" width="4.46" height="2.13" transform="translate(-.09 .3) rotate(-.1)"/>
          <rect class="cls-8" x="160.08" y="44.18" width="14.38" height="4.59" transform="translate(-.09 .31) rotate(-.11)"/>
          <path class="cls-1" d="m173.74,45.48l-13.19.02c-1.42,0-2.57-1.12-2.57-2.51v-3.86c0-1.39,1.14-2.52,2.56-2.52l13.19-.02c1.42,0,2.57,1.12,2.57,2.51v3.86c0,1.39-1.14,2.52-2.56,2.52Z"/>
        </g>
        <path class="cls-17" d="m69.04,117.95c1.31-.06,2.62.06,3.93.08l1.78.03-1.52,1.15c-.36.27-.77.5-1.09.8l-.45.46c-.18.14-.22.34-.35.5-.13.16-.2.34-.24.53-.06.18-.13.36-.1.56-.04.37.05.77.19,1.16.54,1.4,1.81,2.63,3.13,3.6.84-.75,1.7-1.43,2.59-2.08,1.08-.76,2.19-1.47,3.34-2.12,2.29-1.3,4.71-2.4,7.23-3.2.62-.23,1.26-.4,1.9-.57.64-.16,1.27-.37,1.92-.49,1.3-.26,2.6-.53,3.92-.65,1.31-.2,2.64-.22,3.97-.27,1.33-.05,2.65.07,3.98.11l3.17.09-2.72,2.02c-.34.25-.73.46-1.02.72l-.41.4c-.17.12-.19.29-.3.43-.12.14-.17.29-.2.43-.05.14-.11.29-.09.45-.04.3.03.63.15.98.42,1.17,1.53,2.32,2.71,3.24.78-.67,1.57-1.29,2.39-1.88,1.1-.76,2.22-1.47,3.39-2.12,2.32-1.29,4.77-2.38,7.31-3.17.63-.23,1.27-.4,1.92-.56.65-.16,1.28-.37,1.94-.48,1.31-.25,2.62-.51,3.95-.62,1.32-.19,2.66-.2,3.99-.24,1.33-.04,2.66.1,3.99.14l3.6.12-3.08,2.3c-.33.24-.71.45-1,.71l-.4.39c-.16.12-.18.28-.28.4-.11.13-.16.27-.19.4-.05.13-.1.26-.08.41-.04.27.03.59.14.91.23.66.73,1.36,1.33,1.98.37.39.79.76,1.23,1.11.76-.64,1.52-1.22,2.31-1.78,1.11-.75,2.24-1.46,3.41-2.1,2.34-1.28,4.8-2.35,7.35-3.12.63-.22,1.28-.39,1.92-.55.65-.15,1.29-.36,1.94-.46,1.31-.24,2.62-.49,3.95-.59,1.32-.18,2.66-.18,3.99-.21,1.33-.03,2.66.12,3.99.17l3.43.14-2.94,2.15c-.33.24-.72.45-1.02.71l-.41.39c-.17.12-.19.28-.3.41-.11.13-.17.28-.2.42-.05.14-.11.28-.09.43-.04.29.02.62.14.96.41,1.16,1.5,2.32,2.67,3.25.78-.66,1.57-1.27,2.39-1.85,1.1-.75,2.23-1.45,3.4-2.09,2.33-1.27,4.78-2.35,7.33-3.09.63-.22,1.27-.38,1.92-.53.65-.15,1.28-.35,1.94-.44,1.31-.23,2.61-.47,3.93-.56,1.32-.17,2.64-.16,3.96-.18,1.32-.02,2.64.14,3.96.2l2.62.12-2.25,1.59c-.35.25-.76.46-1.07.73l-.44.42c-.17.13-.22.31-.34.46-.13.15-.2.31-.23.48-.06.16-.13.33-.11.51-.05.35.02.72.15,1.1.48,1.37,1.72,2.64,3.02,3.64.85-.73,1.71-1.38,2.62-2.01.56-.38,1.15-.7,1.73-1.05l-.06-34.36-65.81-45.14-65.64,45.39.05,28.38c.42-.02.84-.04,1.26-.06Z"/>
        <g>
          <path class="cls-8" d="m138.59,123.26h-6.42c.26.59.67,1.18,1.18,1.72.07.08.17.15.25.22h2.13c.39-.3.76-.62,1.16-.9.55-.38,1.14-.7,1.7-1.05Z"/>
          <path class="cls-8" d="m108.59,123.32h-6.72c.31.68.81,1.34,1.42,1.95h2.47c.36-.28.7-.58,1.07-.85.57-.39,1.17-.73,1.76-1.1Z"/>
          <path class="cls-8" d="m169.14,123.21h-6.99c.27.68.76,1.33,1.35,1.95h2.72c.31-.24.6-.49.91-.71.65-.44,1.34-.83,2.01-1.24Z"/>
          <path class="cls-8" d="m193.07,125.1h4.05c.13-.1.26-.22.39-.31.56-.38,1.15-.7,1.73-1.05v-.59s-7.37.01-7.37.01c.24.68.66,1.33,1.19,1.94Z"/>
          <path class="cls-8" d="m79.01,123.38h-7.74c.3.71.77,1.36,1.34,1.95h3.54c.25-.2.49-.42.74-.6.69-.48,1.41-.91,2.12-1.35Z"/>
        </g>
        <g>
          <path class="cls-8" d="m69.04,117.95c1.31-.06,2.62.06,3.93.08l1.78.03-1.4,1.06,15.14-.03c.3-.09.59-.19.89-.27.64-.16,1.27-.37,1.92-.49,1.3-.26,2.6-.53,3.92-.65,1.31-.2,2.64-.22,3.97-.27,1.33-.05,2.65.07,3.98.11l3.17.09-1.93,1.43,13.45-.03c.53-.17,1.06-.33,1.59-.46.65-.16,1.28-.37,1.94-.48,1.31-.25,2.62-.51,3.95-.62,1.32-.19,2.66-.2,3.99-.24,1.33-.04,2.66.1,3.99.14l3.6.12-2.03,1.52,13.15-.02c.51-.16,1.03-.31,1.55-.44.65-.15,1.29-.36,1.94-.46,1.31-.24,2.62-.49,3.95-.59,1.32-.18,2.66-.18,3.99-.21,1.33-.03,2.66.12,3.99.17l3.43.14-1.88,1.37,14.08-.03c.23-.06.45-.13.69-.19.65-.15,1.28-.35,1.94-.44,1.31-.23,2.61-.47,3.93-.56,1.32-.17,2.64-.16,3.96-.18,1.32-.02,2.64.14,3.96.2l2.62.12-1.44,1.03h4.5s0-1.95,0-1.95l-131.45.25v.82c.42-.02.84-.04,1.26-.06Z"/>
          <path class="cls-8" d="m69.05,119.07c-.42,0-.84,0-1.27.01v.05s2.49,0,2.49,0c-.41-.02-.82-.06-1.22-.06Z"/>
        </g>
        <rect class="cls-8" x="67.77" y="110.87" width="131.45" height="1.94" transform="translate(-.21 .25) rotate(-.11)"/>
        <rect class="cls-8" x="67.75" y="104.66" width="131.45" height="1.94" transform="translate(-.2 .25) rotate(-.11)"/>
        <rect class="cls-8" x="67.74" y="98.46" width="131.45" height="1.94" transform="translate(-.19 .25) rotate(-.11)"/>
        <rect class="cls-8" x="67.73" y="92.26" width="131.45" height="1.94" transform="translate(-.17 .25) rotate(-.11)"/>
        <rect class="cls-8" x="67.72" y="86.05" width="131.45" height="1.94" transform="translate(-.16 .25) rotate(-.11)"/>
        <rect class="cls-8" x="79.39" y="79.85" width="107.4" height="1.94" transform="translate(-.15 .25) rotate(-.11)"/>
        <rect class="cls-8" x="87.9" y="73.65" width="91.31" height="1.94" transform="translate(-.14 .25) rotate(-.11)"/>
        <rect class="cls-8" x="97.53" y="67.44" width="71.59" height="1.94" transform="translate(-.13 .25) rotate(-.11)"/>
        <rect class="cls-8" x="105.91" y="61.24" width="55.44" height="1.94" transform="translate(-.12 .25) rotate(-.11)"/>
        <rect class="cls-8" x="115.59" y="55.04" width="36.73" height="1.94" transform="translate(-.1 .25) rotate(-.11)"/>
        <rect class="cls-8" x="123.41" y="48.83" width="19.66" height="1.94" transform="translate(-.09 .25) rotate(-.11)"/>
        <path class="cls-16" d="m149.57,118.54c.65-.15,1.29-.36,1.94-.46,1.31-.24,2.62-.49,3.95-.59,1.32-.18,2.66-.18,3.99-.21,1.33-.03,2.66.12,3.99.17l3.43.14-2.94,2.15c-.33.24-.72.45-1.02.71l-.41.39c-.17.12-.19.28-.3.41-.11.13-.17.28-.2.42-.05.14-.11.28-.09.43-.04.29.02.62.14.96.41,1.16,1.5,2.32,2.67,3.25.78-.66,1.57-1.27,2.39-1.85.98-.67,2-1.28,3.03-1.86l-.02-8.32c0-.93-.75-1.68-1.68-1.67l-19.1.04c-.93,0-1.68.75-1.67,1.68v4.77c.63-.22,1.26-.38,1.89-.53Z"/>
        <g>
          <g>
            <path class="cls-16" d="m87.47,119.4c.62-.23,1.26-.4,1.9-.57.64-.16,1.27-.37,1.92-.49,1.3-.26,2.6-.53,3.92-.65,1.31-.2,2.64-.22,3.97-.27.19,0,.38,0,.58,0l-.02-12.74c0-.27-.22-.49-.49-.49l-18.24.03c-.27,0-.49.22-.49.49l.03,17.72c2.2-1.23,4.51-2.28,6.92-3.05Z"/>
            <path class="cls-15" d="m87.47,119.4c.31-.12.63-.19.95-.28h-6.26s0,2.51,0,2.51c1.72-.86,3.47-1.64,5.3-2.23Z"/>
            <path class="cls-8" d="m84.03,120.71l-1.87-1.59v2.5c.62-.31,1.23-.63,1.87-.91Z"/>
            <rect class="cls-15" x="82.15" y="106.8" width="15.46" height="10.16" transform="translate(-.21 .17) rotate(-.11)"/>
            <polygon class="cls-8" points="97.62 116.95 82.16 116.98 82.14 106.82 97.62 116.95"/>
          </g>
          <g>
            <path class="cls-16" d="m117.53,119.13c.63-.23,1.27-.4,1.92-.56.65-.16,1.28-.37,1.94-.48,1.31-.25,2.62-.51,3.95-.62,1.32-.19,2.66-.2,3.99-.24.54-.02,1.08,0,1.61.03l-.02-12.62c0-.28-.23-.51-.51-.51l-18.2.03c-.28,0-.51.23-.51.51l.03,16.87c1.87-.95,3.8-1.8,5.81-2.43Z"/>
            <path class="cls-15" d="m117.53,119.13c.09-.03.18-.05.26-.08h-4.45s0,1.7,0,1.7c1.36-.62,2.75-1.17,4.19-1.62Z"/>
            <path class="cls-8" d="m114.67,120.2l-1.33-1.14v1.69c.44-.2.89-.37,1.33-.55Z"/>
            <rect class="cls-15" x="113.32" y="106.74" width="15.46" height="10.16" transform="translate(-.21 .23) rotate(-.11)"/>
            <polygon class="cls-8" points="128.79 116.89 113.33 116.92 113.31 106.76 128.79 116.89"/>
          </g>
        </g>
        <path class="cls-8" d="m199.19,96.98l-63.94-44.8c-1.21-.85-2.81-.84-4.02.01l-63.49,45.03v-7.59s65.63-45.39,65.63-45.39l65.81,45.14v7.59Z"/>
        <path class="cls-16" d="m54.49,95.21l77.96-55.1c.67-.48,1.58-.47,2.25,0l76.1,54.72c.45.33.64.91.46,1.44l-.94,2.8c-.27.81-1.25,1.13-1.95.63l-72.15-51.65c-1.57-1.14-3.7-1.15-5.28-.02l-74.04,52.14c-.7.49-1.68.17-1.94-.64l-.94-2.88c-.17-.53.02-1.11.47-1.44Z"/>
        <path class="cls-16" d="m143.11,75.01c0,5.25-4.24,9.52-9.49,9.53-5.25,0-9.52-4.24-9.53-9.49,0-5.25,4.24-9.52,9.49-9.53,5.25-.01,9.52,4.24,9.53,9.49Z"/>
        <path class="cls-15" d="m141.56,74.99c0,4.39-3.55,7.96-7.94,7.97-4.39,0-7.96-3.54-7.97-7.94s3.54-7.96,7.94-7.97c4.39,0,7.96,3.54,7.97,7.94Z"/>
        <path class="cls-8" d="m139.24,80.62c-3.1,3.11-8.13,3.12-11.25.02-3.11-3.1-3.12-8.13-.02-11.25l11.27,11.22Z"/>
        <rect class="cls-16" x="132.41" y="66.18" width="2.39" height="17.66" transform="translate(-.14 .26) rotate(-.11)"/>
        <rect class="cls-16" x="125.26" y="73.92" width="16.69" height="2.22" transform="translate(-.14 .25) rotate(-.11)"/>
      </g>
      <g>
        <path class="cls-3" d="m222.86,125.84c-.65-.73-1.22-1.55-1.51-2.45-.14-.45-.23-.92-.17-1.38,0-.23.07-.45.15-.67.06-.22.15-.43.3-.61.14-.18.22-.41.42-.55l.51-.48c.36-.3.79-.53,1.18-.79l.69-.47-.8-.04c-1.3-.07-2.59-.23-3.89-.22-1.3.02-2.61,0-3.9.15-1.31.08-2.59.31-3.88.52-.65.09-1.27.29-1.91.42-.64.15-1.27.3-1.9.51-2.52.73-4.96,1.73-7.27,2.98-1.16.62-2.28,1.31-3.38,2.04-.9.63-1.76,1.28-2.62,2.01-1.3-1.01-2.54-2.27-3.02-3.64-.12-.37-.2-.75-.15-1.1-.02-.18.05-.34.11-.51.04-.17.11-.33.23-.48.12-.15.16-.33.34-.46l.44-.42c.32-.27.72-.48,1.07-.73l2.25-1.59-2.61-.12c-1.32-.06-2.63-.22-3.96-.2-1.32.03-2.65.01-3.96.18-1.32.09-2.63.33-3.93.56-.66.1-1.29.3-1.94.44-.65.15-1.29.31-1.92.53-2.55.74-5,1.82-7.33,3.09-1.17.64-2.3,1.34-3.4,2.09-.82.58-1.61,1.19-2.39,1.85-1.17-.93-2.27-2.09-2.67-3.25-.11-.34-.18-.67-.14-.96-.02-.15.04-.29.09-.43.03-.14.08-.29.2-.42.11-.13.13-.29.3-.41l.41-.39c.29-.25.69-.46,1.02-.71l2.94-2.15-3.43-.14c-1.33-.05-2.65-.2-3.99-.17-1.33.04-2.66.03-3.99.21-1.33.1-2.64.35-3.95.59-.66.1-1.3.31-1.94.46-.65.16-1.29.32-1.92.55-2.55.77-5.01,1.84-7.35,3.12-1.17.64-2.3,1.35-3.41,2.1-.79.56-1.55,1.15-2.31,1.78-.43-.35-.86-.72-1.23-1.11-.6-.63-1.09-1.33-1.33-1.98-.11-.32-.18-.64-.14-.91-.02-.15.03-.28.08-.41.02-.14.08-.27.19-.4.11-.13.12-.28.28-.4l.4-.39c.29-.25.67-.46,1-.71l3.08-2.3-3.6-.12c-1.33-.04-2.66-.18-3.99-.14-1.33.05-2.67.05-3.99.24-1.33.11-2.64.37-3.95.62-.66.11-1.29.32-1.94.48-.65.16-1.29.33-1.92.56-2.54.79-4.99,1.88-7.31,3.17-1.16.65-2.29,1.36-3.39,2.12-.82.59-1.61,1.21-2.39,1.88-1.18-.92-2.28-2.07-2.71-3.24-.12-.34-.19-.68-.15-.98-.02-.16.04-.3.09-.45.03-.15.09-.3.2-.43.11-.14.14-.3.3-.43l.41-.4c.3-.26.69-.48,1.02-.72l2.72-2.02-3.17-.09c-1.33-.04-2.65-.16-3.98-.11-1.33.06-2.65.07-3.97.27-1.32.12-2.62.39-3.92.65-.65.11-1.28.33-1.92.49-.64.17-1.28.34-1.9.57-2.52.81-4.94,1.9-7.23,3.2-1.15.65-2.26,1.36-3.34,2.12-.89.65-1.75,1.33-2.59,2.08-1.32-.98-2.59-2.2-3.13-3.6-.14-.39-.23-.78-.19-1.16-.02-.19.04-.37.1-.56.04-.19.11-.37.24-.53.12-.16.17-.36.35-.5l.45-.46c.32-.29.73-.52,1.09-.8l1.52-1.15-1.78-.03c-1.31-.02-2.62-.14-3.93-.08-1.31.06-2.62.09-3.91.3-1.3.12-2.58.4-3.86.67-.64.12-1.26.33-1.89.49-.63.17-1.26.34-1.87.57-4.93,1.65-9.55,4.28-13.31,7.83v47.14c0,19.17,15.54,34.71,34.71,34.71h111.42c19.17,0,34.71-15.54,34.71-34.71v-47.14c-.79-.58-1.53-1.24-2.18-1.96Z"/>
        <circle class="cls-2" cx="112.88" cy="144.69" r="2.68"/>
        <path class="cls-2" d="m91.1,178.91c0,1.48-1.2,2.68-2.68,2.68s-2.68-1.2-2.68-2.68,1.2-2.68,2.68-2.68,2.68,1.2,2.68,2.68Z"/>
        <path class="cls-2" d="m205.31,159.64c0,1.48-1.2,2.68-2.68,2.68s-2.68-1.2-2.68-2.68,1.2-2.68,2.68-2.68,2.68,1.2,2.68,2.68Z"/>
        <circle class="cls-2" cx="218.53" cy="149.24" r="2.68"/>
        <circle class="cls-2" cx="56.33" cy="143.07" r="2.68"/>
        <circle class="cls-2" cx="130.29" cy="149.02" r="4.33"/>
        <circle class="cls-2" cx="80.51" cy="142.01" r="3.24"/>
        <path class="cls-2" d="m208.54,138.35c0,1.79-1.45,3.24-3.24,3.24s-3.24-1.45-3.24-3.24,1.45-3.24,3.24-3.24,3.24,1.45,3.24,3.24Z"/>
        <path class="cls-2" d="m107.78,196.56c0,2.14-1.74,3.88-3.88,3.88s-3.88-1.74-3.88-3.88,1.74-3.88,3.88-3.88,3.88,1.74,3.88,3.88Z"/>
        <circle class="cls-2" cx="172.7" cy="149.71" r="6"/>
        <path class="cls-2" d="m153.28,168.02c0,2.33-1.89,4.21-4.21,4.21s-4.21-1.89-4.21-4.21,1.89-4.21,4.21-4.21,4.21,1.89,4.21,4.21Z"/>
        <circle class="cls-2" cx="121.05" cy="173.81" r="3.56"/>
        <path class="cls-2" d="m142.93,193.97c0,1.36-1.1,2.47-2.47,2.47s-2.47-1.1-2.47-2.47,1.1-2.47,2.47-2.47,2.47,1.1,2.47,2.47Z"/>
        <path class="cls-2" d="m184.38,196.44c0,1.36-1.1,2.47-2.47,2.47s-2.47-1.1-2.47-2.47,1.1-2.47,2.47-2.47,2.47,1.1,2.47,2.47Z"/>
        <g>
          <g>
            <path class="cls-10" d="m74.94,158.24c.84-.76,1.98-1.18,3.22-1.06,1.93.19,3.49,1.74,3.71,3.66.28,2.51-1.68,4.64-4.14,4.64-1.08,0-2.06-.41-2.79-1.08.36.13,1.62-2.9,2.91-3.25-1.82-1.06-2.54-3.05-2.91-2.91Z"/>
            <path class="cls-6" d="m81.21,159.04c.35.53.58,1.15.66,1.81.12,1.05-.16,2.04-.7,2.83,0,0-1.16-.6-1.15-2.52,0-1.22,1.2-2.11,1.2-2.11Z"/>
          </g>
          <g>
            <path class="cls-1" d="m87.6,167.11l6.04.14c-.57,0-.9,3.37-4.43,3.27-3.53-.1-1.11-3.42-1.61-3.41Z"/>
            <path class="cls-4" d="m89.35,170.07c2.73,0,3.5-2.83,4.29-2.83-.53,0-.9,3.37-4.43,3.27-3.53-.1-1.61-3.41-1.61-3.41.33-.36-.98,2.97,1.75,2.97Z"/>
            <path class="cls-6" d="m87.6,167.11l6.04.14c-.21,0-.39.47-.72,1.06-1.25.29-4.31,0-5.44-.4.15-.46.28-.8.12-.79Z"/>
          </g>
          <g>
            <path class="cls-1" d="m88.75,152.46c3.26-.29,3.74,3.06,4.27,3.03l-5.57.46c.46-.01-1.95-3.2,1.3-3.49Z"/>
            <path class="cls-4" d="m88.75,152.46c3.36-.28,3.81,3.19,4.27,3.03-.99.13-1.2-2.89-4.14-2.84-2.64.3-.76,2.57-1.37,3.21.02-.51-1.71-3.15,1.24-3.4Z"/>
            <path class="cls-4" d="m87.45,155.95s.04-.06.07-.09c0,.05-.02.09-.07.09Z"/>
            <path class="cls-6" d="m92.3,154.47c.33.57.53,1.03.72,1.02l-5.57.46c.15,0,0-.33-.16-.78,1.02-.46,3.83-.92,5.01-.7Z"/>
          </g>
          <ellipse class="cls-1" cx="91.48" cy="161.32" rx="10.52" ry="6.53"/>
          <path class="cls-14" d="m90.13,161.32c0,3.27-.26,5.92-.58,5.92s-.58-2.65-.58-5.92.26-5.92.58-5.92.58,2.65.58,5.92Z"/>
          <path class="cls-14" d="m95.01,161.32c0,3.27-.26,5.92-.58,5.92s-.58-2.65-.58-5.92.26-5.92.58-5.92.58,2.65.58,5.92Z"/>
          <path class="cls-14" d="m84.77,157.16c.32,0,.58,1.94.58,4.34s-.26,4.34-.58,4.34-.58-1.94-.58-4.34.26-4.34.58-4.34Z"/>
          <g>
            <path class="cls-14" d="m97.52,159.06c.49,0,.89.39.89.87s-.4.87-.89.87-.89-.39-.89-.87.4-.87.89-.87Z"/>
            <path class="cls-5" d="m97.88,159.64c.23,0,.41.23.41.52s-.19.52-.41.52-.42-.23-.42-.52.19-.52.42-.52Z"/>
            <path class="cls-14" d="m98.15,159.91c0,.09-.05.16-.11.16s-.11-.07-.11-.16.05-.16.11-.16.11.07.11.16Z"/>
          </g>
          <g>
            <path class="cls-11" d="m89.53,159.75c1.52,0,2.68,1.08,2.58,2.4-.1,1.33-1.42,2.4-2.94,2.4s-2.68-1.08-2.58-2.4c.1-1.33,1.42-2.4,2.94-2.4Z"/>
            <path class="cls-4" d="m89.53,159.75c-1.46.35-2.51,1.37-2.3,2.68.16,1.04,1.27,2.47,3.51,1.71-.46.26-1,.41-1.57.41-1.52,0-2.68-1.08-2.58-2.4.1-1.33,1.42-2.4,2.94-2.4Z"/>
          </g>
        </g>
        <g>
          <g>
            <path class="cls-10" d="m175.88,174.06c.73-.66,1.72-1.02,2.8-.92,1.67.17,3.03,1.51,3.21,3.18.24,2.18-1.46,4.02-3.59,4.02-.93,0-1.78-.35-2.42-.93.31.12,1.41-2.52,2.52-2.82-1.58-.92-2.21-2.65-2.52-2.53Z"/>
            <path class="cls-6" d="m181.32,174.76c.3.46.51,1,.57,1.57.1.91-.14,1.77-.61,2.45,0,0-1-.52-1-2.19,0-1.06,1.04-1.83,1.04-1.83Z"/>
          </g>
          <g>
            <path class="cls-1" d="m186.87,181.76l5.24.12c-.5,0-.78,2.93-3.84,2.84-3.06-.09-.96-2.97-1.4-2.96Z"/>
            <path class="cls-4" d="m188.38,184.33c2.37,0,3.04-2.46,3.72-2.46-.46,0-.78,2.93-3.84,2.84-3.06-.09-1.4-2.96-1.4-2.96.29-.32-.85,2.57,1.52,2.57Z"/>
            <path class="cls-6" d="m186.87,181.76l5.24.12c-.19,0-.34.41-.63.92-1.09.26-3.74,0-4.72-.35.13-.4.25-.69.11-.69Z"/>
          </g>
          <g>
            <path class="cls-1" d="m187.87,169.05c2.82-.25,3.24,2.66,3.7,2.63l-4.83.4c.4-.01-1.69-2.77,1.13-3.03Z"/>
            <path class="cls-4" d="m187.87,169.05c2.91-.24,3.31,2.76,3.7,2.63-.85.11-1.04-2.51-3.59-2.46-2.29.26-.66,2.23-1.18,2.78.02-.44-1.48-2.74,1.07-2.95Z"/>
            <path class="cls-4" d="m186.73,172.08s.03-.06.06-.08c0,.05-.02.08-.06.08Z"/>
            <path class="cls-6" d="m190.94,170.79c.29.49.46.9.63.88l-4.83.4c.13,0,0-.29-.14-.68.89-.4,3.33-.8,4.34-.61Z"/>
          </g>
          <path class="cls-1" d="m190.23,171.07c5.04,0,9.13,4.68,9.13,5.67s-4.09,5.67-9.13,5.67c-5.53,0-9.13-3.02-9.13-5.67,0-2.38,4.79-5.67,9.13-5.67Z"/>
          <path class="cls-14" d="m189.06,176.74c0,2.84-.22,5.13-.5,5.13s-.5-2.3-.5-5.13.22-5.13.5-5.13.5,2.3.5,5.13Z"/>
          <path class="cls-14" d="m193.29,176.74c0,2.84-.22,5.13-.5,5.13s-.5-2.3-.5-5.13.22-5.13.5-5.13.5,2.3.5,5.13Z"/>
          <path class="cls-14" d="m184.41,173.13c.28,0,.5,1.69.5,3.77s-.22,3.77-.5,3.77-.5-1.69-.5-3.77.22-3.77.5-3.77Z"/>
          <g>
            <ellipse class="cls-14" cx="195.47" cy="175.53" rx=".77" ry=".76"/>
            <path class="cls-5" d="m195.78,175.28c.2,0,.36.2.36.45s-.16.45-.36.45-.36-.2-.36-.45.16-.45.36-.45Z"/>
            <ellipse class="cls-14" cx="195.92" cy="175.51" rx=".09" ry=".14"/>
          </g>
          <g>
            <path class="cls-11" d="m188.54,175.37c1.32,0,2.32.93,2.24,2.08s-1.23,2.08-2.55,2.08-2.32-.93-2.24-2.08c.09-1.15,1.23-2.08,2.55-2.08Z"/>
            <path class="cls-4" d="m188.54,175.37c-1.27.31-2.17,1.19-2,2.33.14.9,1.1,2.14,3.05,1.48-.4.22-.87.36-1.37.36-1.32,0-2.32-.93-2.24-2.08.09-1.15,1.23-2.08,2.55-2.08Z"/>
          </g>
        </g>
        <g>
          <g>
            <path class="cls-10" d="m53.95,172.85c.57-.52,1.35-.81,2.2-.72,1.32.13,2.39,1.19,2.53,2.5.19,1.72-1.15,3.17-2.83,3.17-.74,0-1.41-.28-1.91-.74.25.09,1.11-1.98,1.99-2.23-1.24-.72-1.74-2.09-1.99-1.99Z"/>
            <path class="cls-6" d="m58.24,173.4c.24.36.4.78.45,1.24.08.72-.11,1.39-.48,1.93,0,0-.79-.41-.79-1.72,0-.83.82-1.45.82-1.45Z"/>
          </g>
          <g>
            <path class="cls-1" d="m62.61,178.91l4.13.09c-.39,0-.61,2.31-3.03,2.24-2.41-.07-.76-2.34-1.1-2.33Z"/>
            <path class="cls-4" d="m63.8,180.94c1.87,0,2.39-1.94,2.94-1.94-.36,0-.61,2.31-3.03,2.24-2.41-.07-1.1-2.33-1.1-2.33.23-.25-.67,2.03,1.19,2.03Z"/>
            <path class="cls-6" d="m62.61,178.91l4.13.09c-.15,0-.27.32-.49.72-.86.2-2.95,0-3.72-.28.1-.32.19-.54.08-.54Z"/>
          </g>
          <g>
            <path class="cls-1" d="m63.4,168.9c2.23-.2,2.56,2.09,2.92,2.07l-3.81.32c.32,0-1.33-2.19.89-2.39Z"/>
            <path class="cls-4" d="m63.4,168.9c2.3-.19,2.61,2.18,2.92,2.07-.67.09-.82-1.98-2.83-1.94-1.81.2-.52,1.76-.93,2.19.02-.35-1.17-2.16.85-2.32Z"/>
            <path class="cls-4" d="m62.5,171.28s.03-.04.05-.06c0,.04-.01.06-.05.06Z"/>
            <path class="cls-6" d="m65.82,170.27c.23.39.36.71.5.7l-3.81.32c.1,0,0-.23-.11-.54.7-.32,2.62-.63,3.42-.48Z"/>
          </g>
          <path class="cls-1" d="m65.26,170.49c3.97,0,7.19,3.69,7.19,4.47s-3.22,4.47-7.19,4.47c-4.36,0-7.19-2.38-7.19-4.47,0-1.88,3.77-4.47,7.19-4.47Z"/>
          <path class="cls-14" d="m64.34,174.96c0,2.24-.18,4.05-.39,4.05s-.39-1.81-.39-4.05.18-4.05.39-4.05.39,1.81.39,4.05Z"/>
          <path class="cls-14" d="m67.67,174.96c0,2.24-.18,4.05-.39,4.05s-.39-1.81-.39-4.05.18-4.05.39-4.05.39,1.81.39,4.05Z"/>
          <ellipse class="cls-14" cx="60.67" cy="175.08" rx=".39" ry="2.97"/>
          <g>
            <path class="cls-14" d="m69.39,173.41c.34,0,.61.27.61.6s-.27.6-.61.6-.61-.27-.61-.6.27-.6.61-.6Z"/>
            <path class="cls-5" d="m69.64,173.81c.16,0,.28.16.28.36s-.13.36-.28.36-.28-.16-.28-.36.13-.36.28-.36Z"/>
            <path class="cls-14" d="m69.82,173.99c0,.06-.03.11-.07.11s-.07-.05-.07-.11.03-.11.07-.11.07.05.07.11Z"/>
          </g>
          <g>
            <path class="cls-11" d="m63.93,173.88c1.04,0,1.83.74,1.76,1.64-.07.91-.97,1.64-2.01,1.64s-1.83-.74-1.76-1.64c.07-.91.97-1.64,2.01-1.64Z"/>
            <path class="cls-4" d="m63.93,173.88c-1,.24-1.71.94-1.57,1.84.11.71.87,1.69,2.4,1.17-.31.18-.69.28-1.08.28-1.04,0-1.83-.74-1.76-1.64.07-.91.97-1.64,2.01-1.64Z"/>
          </g>
        </g>
      </g>
    </g>
    <g>
      <path class="cls-9" d="m317.08,78.35v9.37h-33.84v31.11h28.71v9.37h-28.71v43.48h-27.07v-93.32h60.92Z"/>
      <path class="cls-9" d="m353.25,78.35v83.96h38.35v9.37h-65.43v-93.32h27.07Z"/>
      <path class="cls-9" d="m435.5,76.71c27.16,0,40.75,16.09,40.75,48.27s-13.83,48.27-41.5,48.27-41.5-16.45-41.5-49.36,14.08-47.17,42.25-47.17Zm-.75,7.45c-5.1,0-8.56,2.82-10.36,8.44-1.8,5.63-2.7,16.42-2.7,32.37s.9,26.74,2.7,32.37c1.8,5.63,5.25,8.44,10.36,8.44s8.56-2.81,10.36-8.44c1.8-5.63,2.7-16.42,2.7-32.37s-.9-26.69-2.7-32.34c-1.8-5.65-5.25-8.48-10.36-8.48Z"/>
      <path class="cls-9" d="m526.36,76.71c27.16,0,40.75,16.09,40.75,48.27s-13.83,48.27-41.5,48.27-41.5-16.45-41.5-49.36,14.08-47.17,42.25-47.17Zm-.75,7.45c-5.1,0-8.56,2.82-10.36,8.44-1.8,5.63-2.7,16.42-2.7,32.37s.9,26.74,2.7,32.37c1.8,5.63,5.25,8.44,10.36,8.44s8.56-2.81,10.36-8.44c1.8-5.63,2.7-16.42,2.7-32.37s-.9-26.69-2.7-32.34c-1.8-5.65-5.25-8.48-10.36-8.48Z"/>
      <path class="cls-9" d="m579.07,171.68v-93.32h38.7c27.48,0,41.23,15.59,41.23,46.76s-14.24,46.56-42.73,46.56h-37.19Zm27.07-7.73h7.11c6.52,0,11.03-2.81,13.54-8.44,2.51-5.63,3.76-15.8,3.76-30.53s-1.24-24.89-3.73-30.49c-2.48-5.61-7.01-8.41-13.57-8.41h-7.11v77.87Z"/>
    </g>
  </g>
</svg>