<?xml version="1.0" encoding="UTF-8"?>
<svg id="Layer_2" data-name="Layer 2" xmlns="http://www.w3.org/2000/svg" viewBox="0 0 697 255">
  <defs>
    <style>
      .cls-1 {
        fill: #ff5e14;
      }

      .cls-1, .cls-2, .cls-3, .cls-4, .cls-5, .cls-6, .cls-7, .cls-8, .cls-9, .cls-10, .cls-11, .cls-12, .cls-13, .cls-14, .cls-15, .cls-16 {
        stroke-width: 0px;
      }

      .cls-2 {
        fill: #ff7614;
      }

      .cls-3 {
        fill: #24b500;
      }

      .cls-4 {
        fill: #332018;
      }

      .cls-5 {
        fill: #662d91;
      }

      .cls-6 {
        fill: #613d2d;
      }

      .cls-7 {
        opacity: .2;
      }

      .cls-8 {
        fill: #333;
      }

      .cls-9 {
        fill: #ccc;
      }

      .cls-10 {
        fill: #94360c;
      }

      .cls-11 {
        fill: #96deff;
      }

      .cls-12 {
        fill: #38acff;
      }

      .cls-13 {
        fill: #4da3ff;
      }

      .cls-14 {
        fill: #bf8452;
      }

      .cls-17 {
        opacity: .76;
      }

      .cls-15 {
        fill: #4a2e23;
      }

      .cls-16 {
        fill: #663f30;
      }
    </style>
  </defs>
  <g id="fire_dark" data-name="fire dark">
    <g class="cls-17">
      <rect class="cls-5" x=".5" y=".5" width="696" height="254" rx="69.5" ry="69.5"/>
      <path class="cls-9" d="m627,1c38.05,0,69,30.95,69,69v115c0,38.05-30.95,69-69,69H70C31.95,254,1,223.05,1,185v-115C1,31.95,31.95,1,70,1h557m0-1H70C31.34,0,0,31.34,0,70v115c0,38.66,31.34,70,70,70h557c38.66,0,70-31.34,70-70v-115c0-38.66-31.34-70-70-70h0Z"/>
    </g>
    <g>
      <path class="cls-8" d="m262.45,134.05v27.54h-16.06v-55.36h16.06v22.27h13.1v-22.27h16.06v55.36h-16.06v-27.54h-13.1Z"/>
      <path class="cls-8" d="m342.75,106.23v37.15c0,12.74-7.04,19.1-21.13,19.1s-21.05-6.37-21.05-19.1v-37.15h16.06v37.64c0,4.87.7,8.19,2.09,9.98s3.97,2.68,7.73,2.68c7.27,0,10.91-4.38,10.91-13.14v-37.15h5.39Z"/>
      <path class="cls-8" d="m351.48,161.59v-55.36h23.81c6.19,0,11.14,1.31,14.84,3.91,3.7,2.61,5.56,6.1,5.56,10.48,0,6.71-3.97,11.07-11.92,13.1,4.08,1.51,6.73,3.18,7.93,4.99,1.2,1.81,2.02,5.33,2.45,10.54.51,6.22,1.55,10.33,3.12,12.33h-17.44c-1.11-2.57-1.66-5.77-1.66-9.61l-.08-3.29-.08-4.14c0-6.38-2.57-9.57-7.71-9.57h-2.76v26.61h-16.06Zm16.06-31.19h3.24c6.08,0,9.13-3.18,9.13-9.53s-3.04-9.53-9.13-9.53h-3.24v19.06Z"/>
      <path class="cls-8" d="m403.96,161.59v-55.36h23.81c6.19,0,11.14,1.31,14.84,3.91,3.7,2.61,5.56,6.1,5.56,10.48,0,6.71-3.97,11.07-11.92,13.1,4.08,1.51,6.73,3.18,7.93,4.99,1.2,1.81,2.02,5.33,2.45,10.54.51,6.22,1.55,10.33,3.12,12.33h-17.44c-1.11-2.57-1.66-5.77-1.66-9.61l-.08-3.29-.08-4.14c0-6.38-2.57-9.57-7.71-9.57h-2.76v26.61h-16.06Zm16.06-31.19h3.24c6.08,0,9.13-3.18,9.13-9.53s-3.04-9.53-9.13-9.53h-3.24v19.06Z"/>
      <path class="cls-8" d="m472.54,106.23v55.36h-16.06v-55.36h16.06Z"/>
      <path class="cls-8" d="m518.82,139.36l6.85,1.78c.11,1.41.16,2.62.16,3.65,0,5.38-1.95,9.68-5.84,12.9-3.89,3.22-9.11,4.83-15.66,4.83-16.41,0-24.62-9.23-24.62-27.7,0-8.76,2.39-15.86,7.18-21.31,4.79-5.45,11.02-8.17,18.7-8.17,11.98,0,17.97,5.76,17.97,17.28l-6.89,3.16c.08-1.62.12-2.88.12-3.77,0-8.17-3.27-12.25-9.81-12.25-6.92,0-10.38,8.67-10.38,26,0,14.9,3.87,22.35,11.6,22.35,3.19,0,5.85-1.27,7.97-3.81,2.12-2.54,3.18-5.72,3.18-9.53,0-1.22-.18-3.01-.53-5.39Z"/>
      <path class="cls-8" d="m557.06,106.23l15.41,55.36h-16.14l-3.29-12h-16.67l-3.53,12h-6.29l16.38-55.36h14.11Zm-19.1,37.8h13.59l-6.53-24.54-7.06,24.54Z"/>
      <path class="cls-8" d="m617.29,106.23v55.36h-12.29l-23.12-35.04v35.04h-5.39v-55.36h10.18l25.23,37.84v-37.84h5.39Z"/>
      <path class="cls-8" d="m662.39,106.23v5.56h-19.83v16.75h16.67v5.56h-16.67v21.94h23.2v5.56h-39.26v-55.36h35.89Z"/>
    </g>
    <g>
      <g>
        <path class="cls-4" d="m137.96,190.78l-64.42.15c-1.11,0-1.89-.9-1.74-2.01l.14-1.05,68.45-.16-.14,1.05c-.15,1.11-1.17,2.01-2.28,2.02Z"/>
        <g>
          <polygon class="cls-1" points="133.12 146.58 125.63 146.59 128.41 126.07 135.89 126.05 133.12 146.58"/>
          <polygon class="cls-10" points="134.08 132.52 131.76 132.52 131.91 131.41 134.23 131.41 134.08 132.52"/>
          <polygon class="cls-10" points="132.71 134.08 130.39 134.09 130.54 132.98 132.86 132.97 132.71 134.08"/>
          <polygon class="cls-10" points="133.36 137.86 131.04 137.87 131.19 136.76 133.51 136.75 133.36 137.86"/>
          <polygon class="cls-10" points="130.72 130.86 128.4 130.87 128.55 129.76 130.87 129.75 130.72 130.86"/>
          <polygon class="cls-7" points="135.46 129.28 127.97 129.3 128.29 126.91 135.78 126.9 135.46 129.28"/>
          <path class="cls-1" d="m135.31,127.58l-6.87.02c-.74,0-1.26-.58-1.16-1.31l.27-2.01c.1-.72.78-1.31,1.52-1.31l6.87-.02c.74,0,1.26.58,1.16,1.31l-.27,2.01c-.1.72-.78,1.31-1.52,1.31Z"/>
        </g>
        <polygon class="cls-2" points="140.39 187.72 71.94 187.88 76.98 150.59 114.38 126.95 145.42 150.43 140.39 187.72"/>
        <polygon class="cls-7" points="140.73 185.16 72.28 185.32 72.42 184.31 140.87 184.15 140.73 185.16"/>
        <polygon class="cls-7" points="141.17 181.93 72.72 182.09 72.86 181.08 141.3 180.92 141.17 181.93"/>
        <polygon class="cls-7" points="141.6 178.7 73.16 178.86 73.29 177.85 141.74 177.69 141.6 178.7"/>
        <polygon class="cls-7" points="142.04 175.47 73.59 175.63 73.73 174.62 142.18 174.46 142.04 175.47"/>
        <polygon class="cls-7" points="142.48 172.24 74.03 172.4 74.16 171.39 142.61 171.23 142.48 172.24"/>
        <polygon class="cls-7" points="142.91 169.01 74.46 169.17 74.6 168.17 143.05 168 142.91 169.01"/>
        <polygon class="cls-7" points="143.35 165.78 74.9 165.95 75.04 164.94 143.49 164.77 143.35 165.78"/>
        <polygon class="cls-7" points="143.79 162.55 75.34 162.72 75.47 161.71 143.92 161.55 143.79 162.55"/>
        <polygon class="cls-7" points="144.22 159.33 75.77 159.49 75.91 158.48 144.36 158.32 144.22 159.33"/>
        <polygon class="cls-7" points="144.66 156.1 76.21 156.26 76.35 155.25 144.79 155.09 144.66 156.1"/>
        <polygon class="cls-7" points="145.09 152.87 76.65 153.03 76.78 152.02 145.23 151.86 145.09 152.87"/>
        <polygon class="cls-7" points="145.53 149.64 77.08 149.8 77.22 148.79 145.67 148.63 145.53 149.64"/>
        <polygon class="cls-7" points="139.52 146.42 83.6 146.56 83.73 145.55 139.66 145.42 139.52 146.42"/>
        <polygon class="cls-7" points="136.02 143.2 88.48 143.32 88.61 142.31 136.16 142.2 136.02 143.2"/>
        <polygon class="cls-7" points="131.21 139.99 93.93 140.08 94.07 139.07 131.34 138.98 131.21 139.99"/>
        <polygon class="cls-7" points="127.61 136.77 98.74 136.84 98.87 135.83 127.74 135.76 127.61 136.77"/>
        <polygon class="cls-7" points="123.34 133.55 104.22 133.6 104.36 132.59 123.48 132.54 123.34 133.55"/>
        <polygon class="cls-7" points="118.97 130.33 108.73 130.36 108.87 129.35 119.1 129.32 118.97 130.33"/>
        <g>
          <path class="cls-16" d="m127.78,162.51l-9.95.02c-.48,0-.93.39-.99.88l-3.16,23.38c-.07.48.27.87.76.87l9.95-.02c.48,0,.93-.39.99-.88l3.16-23.38c.07-.48-.27-.87-.76-.87Z"/>
          <polygon class="cls-15" points="126.3 188.63 112.29 188.67 112.62 186.07 126.63 186.04 126.3 188.63"/>
          <path class="cls-14" d="m119.35,174.35c-.11.84-.89,1.53-1.73,1.53-.84,0-1.43-.68-1.32-1.52.11-.84.89-1.53,1.73-1.53.84,0,1.43.68,1.32,1.52Z"/>
        </g>
        <g>
          <g>
            <path class="cls-16" d="m90.22,173.87l-9.5.02c-.14,0-.24-.11-.22-.25l2.05-15.2c.02-.14.15-.26.29-.26l9.5-.02c.14,0,.24.11.22.25l-2.05,15.2c-.02.14-.15.26-.29.26Z"/>
            <polygon class="cls-12" points="89.51 172.79 81.46 172.81 82.39 165.94 90.44 165.92 89.51 172.79"/>
            <polygon class="cls-7" points="89.51 172.79 81.46 172.81 82.39 165.94 89.51 172.79"/>
            <polygon class="cls-12" points="90.59 164.8 82.54 164.82 83.25 159.53 91.3 159.51 90.59 164.8"/>
            <polygon class="cls-7" points="90.59 164.8 82.54 164.82 83.25 159.53 90.59 164.8"/>
          </g>
          <g>
            <path class="cls-16" d="m106.44,173.83l-9.48.02c-.15,0-.25-.12-.23-.26l2.05-15.18c.02-.15.15-.27.3-.27l9.48-.02c.15,0,.25.12.23.26l-2.05,15.18c-.02.15-.16.27-.3.27Z"/>
            <polygon class="cls-12" points="105.74 172.75 97.69 172.77 98.62 165.9 106.67 165.88 105.74 172.75"/>
            <polygon class="cls-7" points="105.74 172.75 97.69 172.77 98.62 165.9 105.74 172.75"/>
            <polygon class="cls-12" points="106.82 164.76 98.77 164.78 99.49 159.49 107.54 159.47 106.82 164.76"/>
            <polygon class="cls-7" points="106.82 164.76 98.77 164.78 99.49 159.49 106.82 164.76"/>
          </g>
        </g>
        <path class="cls-7" d="m144.89,154.38l-30.09-23.3c-.57-.44-1.41-.44-2.09,0l-36.26,23.46.53-3.95,37.41-23.64,31.04,23.48-.53,3.95Z"/>
        <path class="cls-16" d="m69.69,153.5l44.51-28.7c.38-.25.85-.25,1.17,0l35.71,28.46c.21.17.27.47.14.75l-.69,1.46c-.2.42-.73.59-1.06.33l-33.88-26.87c-.74-.59-1.84-.6-2.75,0l-42.26,27.16c-.4.26-.88.09-.97-.34l-.29-1.5c-.05-.28.09-.58.35-.75Z"/>
        <path class="cls-16" d="m117.26,142.96c-.37,2.73-2.89,4.95-5.62,4.96-2.73,0-4.65-2.2-4.28-4.94s2.88-4.95,5.62-4.96c2.73,0,4.65,2.2,4.28,4.94Z"/>
        <path class="cls-12" d="m116.45,142.95c-.31,2.29-2.41,4.14-4.7,4.15-2.29,0-3.89-1.84-3.58-4.13.31-2.29,2.41-4.14,4.7-4.15,2.29,0,3.89,1.84,3.58,4.13Z"/>
        <path class="cls-7" d="m114.85,145.88c-1.84,1.62-4.46,1.63-5.86.01-1.4-1.61-1.04-4.23.79-5.85l5.06,5.84Z"/>
        <polygon class="cls-16" points="112.32 147.55 111.07 147.56 112.31 138.36 113.56 138.36 112.32 147.55"/>
        <polygon class="cls-16" points="116.58 143.54 107.89 143.56 108.04 142.4 116.74 142.38 116.58 143.54"/>
      </g>
      <g>
        <rect class="cls-3" x="37.72" y="189.06" width="182.76" height="18.01" rx="8.91" ry="8.91"/>
        <path class="cls-6" d="m203.07,215.65H55.14c-4.7,0-8.5-3.81-8.5-8.5v-.09h164.94v.09c0,4.7-3.81,8.5-8.5,8.5Z"/>
      </g>
      <g>
        <path class="cls-3" d="m176.13,160.3c-1.53-.13-2.36-1.4-1.8-1.67.55-.27-.87-.93-.83-1.34.04-.4-.55-.83.18-1.55.73-.72-.18-.49-.59-1.15-2.44-.87,0-.93.55-1.53.36-.39-5.65-.58-4.99-1.08.65-.5,3.19-.24,3.04-.27-2.54-.9-4.72-.54-5.06-.81,0,0,2.06-.14,2.05-.14-.32-.08-2.75,0-3.15,0-1.7-.03-8.14,4.08-11.25,13.44-2.59,7.8-.31,15.8,4.05,15.8,1.04,0,2.07-.39,3.06-1.07.57,0,.99-.07,1.3-.34.55-.47.42-.87,2.03-.87,1.62,0,2.4-.06,3.51-1.06,1.11-1-3.61-.13-1.94-.67s.69-.93-.83-1.5c-.12-.04-.2-.08-.29-.13.13-.25.26-.5.39-.76.4-.08.92-.16,1.56-.23,2.21-.23,1.11-1,1.32-1.54.21-.53.48-.67,1.73-.93,1.25-.27,3.5-1.12,2.77-1.71-.73-.59-.96.11-2.63-.83-1.66-.94,1.51-.98,1.64-1.18.14-.2.06-1.22,1.41-1.53,1.35-.31-1.26-.96-1.41-1.63-.15-.67-.68-.53.98-1.29,1.66-.76.84-.98.56-1.45-.28-.47.69-.4,2.63-.47,1.94-.07,1.53-.4,0-.53Z"/>
        <path class="cls-16" d="m162.23,166.08c-5.56,10.3-6.08,23.54-6.08,23.54h2.25s.22-17,4.83-23.53c.15-.49-.25-1.29-1,0Z"/>
      </g>
      <g>
        <path class="cls-3" d="m202.4,157.16c-1.69-.15-2.61-1.55-2-1.85.61-.3-.96-1.04-.92-1.48.04-.44-.61-.92.2-1.71.81-.79-.2-.54-.66-1.28-2.7-.97,0-1.03.61-1.69.4-.43-6.25-.65-5.53-1.19.72-.55,3.54-.26,3.36-.3-2.81-1-5.22-.6-5.61-.9-.01,0-.02,0-.03,0-.36-.09-.74-.16-1.19-.17-1.89-.03-9.01,4.52-12.45,14.89-2.86,8.64-.34,17.5,4.48,17.49,1.15,0,2.29-.43,3.39-1.18.63,0,1.09-.08,1.44-.37.61-.52.46-.96,2.25-.97,1.79,0,2.66-.07,3.89-1.18s-3.99-.15-2.15-.74c1.84-.59.77-1.04-.92-1.66-.13-.05-.22-.09-.32-.14.15-.27.29-.55.43-.84.45-.09,1.02-.18,1.73-.25,2.45-.25,1.23-1.11,1.46-1.7.23-.59.53-.74,1.91-1.03,1.38-.3,3.88-1.24,3.07-1.89-.81-.65-1.07.12-2.91-.92-1.84-1.05,1.67-1.09,1.82-1.31s.07-1.35,1.56-1.69-1.39-1.06-1.56-1.8c-.17-.74-.75-.59,1.09-1.43,1.84-.84.93-1.09.62-1.6s.77-.44,2.92-.52c2.15-.07,1.69-.44,0-.59Z"/>
        <path class="cls-16" d="m187.01,163.55c-6.16,11.4-6.74,26.06-6.74,26.06h2.5s.25-18.82,5.35-26.06c.17-.55-.28-1.43-1.11,0Z"/>
      </g>
      <g>
        <path class="cls-13" d="m186.67,124.83l8.68-10.41-7.59,11.91c-.28.44-.77.49-1.09.1-.32-.39-.36-1.06-.07-1.5.02-.03.05-.07.07-.1Z"/>
        <path class="cls-13" d="m171.07,124.83l8.68-10.41-7.59,11.91c-.28.44-.77.49-1.09.1-.32-.39-.36-1.06-.07-1.5.02-.03.05-.07.07-.1Z"/>
        <path class="cls-13" d="m166.6,97.69l8.68-10.41-7.59,11.91c-.28.44-.77.49-1.09.1-.32-.39-.36-1.06-.07-1.5.02-.03.05-.07.07-.1Z"/>
        <path class="cls-13" d="m146.95,121.13l8.68-10.41-7.59,11.91c-.28.44-.77.49-1.09.1s-.36-1.06-.07-1.5c.02-.03.05-.07.07-.1Z"/>
        <path class="cls-13" d="m129.22,124.83l8.68-10.41-7.59,11.91c-.28.44-.77.49-1.09.1-.32-.39-.36-1.06-.07-1.5.02-.03.05-.07.07-.1Z"/>
        <path class="cls-13" d="m107.63,118.02l8.68-10.41-7.59,11.91c-.28.44-.77.49-1.09.1-.32-.39-.36-1.06-.07-1.5.02-.03.05-.07.07-.1Z"/>
        <path class="cls-13" d="m87.89,125.55l8.68-10.41-7.59,11.91c-.28.44-.77.49-1.09.1-.32-.39-.36-1.06-.07-1.5.02-.03.05-.07.07-.1Z"/>
        <path class="cls-13" d="m70.3,125.87l8.68-10.41-7.59,11.91c-.28.44-.77.49-1.09.1-.32-.39-.36-1.06-.07-1.5.02-.03.05-.07.07-.1Z"/>
        <path class="cls-13" d="m53.8,136.53l8.68-10.41-7.59,11.91c-.28.44-.77.49-1.09.1-.32-.39-.36-1.06-.07-1.5.02-.03.05-.07.07-.1Z"/>
        <path class="cls-13" d="m58.28,149.38l8.68-10.41-7.59,11.91c-.28.44-.77.49-1.09.1-.32-.39-.36-1.06-.07-1.5.02-.03.05-.07.07-.1Z"/>
        <path class="cls-13" d="m44.86,168.18l8.68-10.41-7.59,11.91c-.28.44-.77.49-1.09.1s-.36-1.06-.07-1.5c.02-.03.05-.07.07-.1Z"/>
        <path class="cls-13" d="m60.67,165.66l8.68-10.41-7.59,11.91c-.28.44-.77.49-1.09.1-.32-.39-.36-1.06-.07-1.5.02-.03.05-.07.07-.1Z"/>
        <path class="cls-13" d="m74.78,145.54l8.68-10.41-7.59,11.91c-.28.44-.77.49-1.09.1-.32-.39-.36-1.06-.07-1.5.02-.03.05-.07.07-.1Z"/>
        <path class="cls-13" d="m95.42,143.66l8.68-10.41-7.59,11.91c-.28.44-.77.49-1.09.1-.32-.39-.36-1.06-.07-1.5.02-.03.05-.07.07-.1Z"/>
        <path class="cls-13" d="m112.1,142.67l8.68-10.41-7.59,11.91c-.28.44-.77.49-1.09.1-.32-.39-.36-1.06-.07-1.5.02-.03.05-.07.07-.1Z"/>
        <path class="cls-13" d="m127.91,142.06l8.68-10.41-7.59,11.91c-.28.44-.77.49-1.09.1-.32-.39-.36-1.06-.07-1.5.02-.03.05-.07.07-.1Z"/>
        <path class="cls-13" d="m145.46,142.54l8.68-10.41-7.59,11.91c-.28.44-.77.49-1.09.1-.32-.39-.36-1.06-.07-1.5.02-.03.05-.07.07-.1Z"/>
        <path class="cls-13" d="m160.79,144.6l8.68-10.41-7.59,11.91c-.28.44-.77.49-1.09.1-.32-.39-.36-1.06-.07-1.5.02-.03.05-.07.07-.1Z"/>
        <path class="cls-13" d="m185.16,142.06l8.68-10.41-7.59,11.91c-.28.44-.77.49-1.09.1s-.36-1.06-.07-1.5c.02-.03.05-.07.07-.1Z"/>
        <path class="cls-13" d="m166.6,154.66l8.68-10.41-7.59,11.91c-.28.44-.77.49-1.09.1s-.36-1.06-.07-1.5c.02-.03.05-.07.07-.1Z"/>
        <path class="cls-13" d="m186.67,156.77l8.68-10.41-7.59,11.91c-.28.44-.77.49-1.09.1-.32-.39-.36-1.06-.07-1.5.02-.03.05-.07.07-.1Z"/>
        <path class="cls-13" d="m199.57,162.64l8.68-10.41-7.59,11.91c-.28.44-.77.49-1.09.1s-.36-1.06-.07-1.5c.02-.03.05-.07.07-.1Z"/>
        <path class="cls-13" d="m183.3,177.61l8.68-10.41-7.59,11.91c-.28.44-.77.49-1.09.1s-.36-1.06-.07-1.5c.02-.03.05-.07.07-.1Z"/>
        <path class="cls-13" d="m201.91,130.96l8.68-10.41-7.59,11.91c-.28.44-.77.49-1.09.1-.32-.39-.36-1.06-.07-1.5.02-.03.05-.07.07-.1Z"/>
        <path class="cls-13" d="m204.05,182.17l8.68-10.41-7.59,11.91c-.28.44-.77.49-1.09.1-.32-.39-.36-1.06-.07-1.5.02-.03.05-.07.07-.1Z"/>
        <path class="cls-13" d="m178.83,172.74l8.68-10.41-7.59,11.91c-.28.44-.77.49-1.09.1-.32-.39-.36-1.06-.07-1.5.02-.03.05-.07.07-.1Z"/>
        <path class="cls-13" d="m151.42,182.72l8.68-10.41-7.59,11.91c-.28.44-.77.49-1.09.1s-.36-1.06-.07-1.5c.02-.03.05-.07.07-.1Z"/>
        <path class="cls-13" d="m146.95,165.03l8.68-10.41-7.59,11.91c-.28.44-.77.49-1.09.1-.32-.39-.36-1.06-.07-1.5.02-.03.05-.07.07-.1Z"/>
        <path class="cls-13" d="m129.22,180.45l8.68-10.41-7.59,11.91c-.28.44-.77.49-1.09.1s-.36-1.06-.07-1.5c.02-.03.05-.07.07-.1Z"/>
        <path class="cls-13" d="m127.91,161.1l8.68-10.41-7.59,11.91c-.28.44-.77.49-1.09.1-.32-.39-.36-1.06-.07-1.5.02-.03.05-.07.07-.1Z"/>
        <path class="cls-13" d="m112.1,166.6l8.68-10.41-7.59,11.91c-.28.44-.77.49-1.09.1s-.36-1.06-.07-1.5c.02-.03.05-.07.07-.1Z"/>
        <path class="cls-13" d="m94.85,162.91l8.68-10.41-7.59,11.91c-.28.44-.77.49-1.09.1-.32-.39-.36-1.06-.07-1.5.02-.03.05-.07.07-.1Z"/>
        <path class="cls-13" d="m79.25,164.49l8.68-10.41-7.59,11.91c-.28.44-.77.49-1.09.1-.32-.39-.36-1.06-.07-1.5.02-.03.05-.07.07-.1Z"/>
        <path class="cls-13" d="m60.67,180.45l8.68-10.41-7.59,11.91c-.28.44-.77.49-1.09.1s-.36-1.06-.07-1.5c.02-.03.05-.07.07-.1Z"/>
        <path class="cls-13" d="m79.25,180.45l8.68-10.41-7.59,11.91c-.28.44-.77.49-1.09.1-.32-.39-.36-1.06-.07-1.5.02-.03.05-.07.07-.1Z"/>
        <path class="cls-13" d="m92.48,183.11l8.68-10.41-7.59,11.91c-.28.44-.77.49-1.09.1-.32-.39-.36-1.06-.07-1.5.02-.03.05-.07.07-.1Z"/>
        <path class="cls-13" d="m115.24,183.74l8.68-10.41-7.59,11.91c-.28.44-.77.49-1.09.1s-.36-1.06-.07-1.5c.02-.03.05-.07.07-.1Z"/>
        <path class="cls-13" d="m142.48,184.05l8.68-10.41-7.59,11.91c-.28.44-.77.49-1.09.1s-.36-1.06-.07-1.5c.02-.03.05-.07.07-.1Z"/>
        <path class="cls-13" d="m162.12,182.17l8.68-10.41-7.59,11.91c-.28.44-.77.49-1.09.1-.32-.39-.36-1.06-.07-1.5.02-.03.05-.07.07-.1Z"/>
        <path class="cls-13" d="m189.63,186.59l8.68-10.41-7.59,11.91c-.28.44-.77.49-1.09.1-.32-.39-.36-1.06-.07-1.5.02-.03.05-.07.07-.1Z"/>
      </g>
      <g>
        <path class="cls-11" d="m229.97,78.72c-.13-6.12-1.49-12.14-3.92-17.4-4.52-9.84-12.48-16.63-21.25-18.17-3.87-.71-7.66-.54-11.38.51-3.42.99-6.63,2.69-9.58,5.12-4.62,3.87-8.28,9.39-10.36,15.58-.43-1.8-1.01-3.55-1.76-5.17-2.98-6.48-8.23-10.95-14.02-11.97-2.52-.46-5-.35-7.45.34-2.25.65-4.37,1.78-6.34,3.4-1.2,1.01-2.27,2.23-3.25,3.54,0-.46.04-.92.03-1.38-.09-4.43-1.08-8.81-2.84-12.63-3.28-7.14-9.07-12.07-15.44-13.19-2.79-.51-5.53-.39-8.22.38-2.49.72-4.82,1.96-6.98,3.74-3.42,2.87-6.13,6.99-7.65,11.63-1,3.09-1.52,6.35-1.52,9.5.02,1.8.12,2.88.17,3.36.14,1.23.48,2.37.98,3.37-3.91-.23-7.81-.51-11.62-.78-3.39-.24-6.74-.47-9.98-.67-9.7-.64-18.11-.84-25.16-.57-6.81.22-13.39,1.05-18.6,2.34-2.54.66-4.3,1.26-5.42,1.68l-1.66.65c-3.7,1.46-5.81,6.26-4.77,11.05.88,3.85,3.75,6.53,6.96,6.53h1.01s2.51-.87,2.51-.87c.62-.2,1.97-.61,4.08-1.07,2.37-.49,7.48-1.3,15.04-1.3h1.04c6.59.03,14.37.62,21.45,1.25-3.2,1.8-4.97,6.3-3.99,10.58.41,1.79,1.25,3.31,2.35,4.44-1.61.32-3.18.65-4.65,1.01-3.84,1-6.47,1.89-8.09,2.5l-2.58,1.01c-3.82,1.5-5.94,6.43-4.85,11.17.89,3.91,3.79,6.65,7.06,6.65h1.04s3.44-1.2,3.44-1.2c1.03-.34,3.28-1.02,6.74-1.78,3.83-.79,12.05-2.1,24.15-2.1h1.63c11.64.04,25.6,1.2,37.72,2.33,5.05.47,10.21,1,15.46,1.53,9.28.95,18.88,1.93,28.52,2.67h.21c7.38.55,15.02,1.1,22.75,1.11h.28c5.37-.27,10.62-2.34,15.22-6.03,4.4-3.59,7.98-8.6,10.33-14.4,2.27-5.45,3.39-12,3.18-18.3Zm-107.38-22.04c-.31.81-.84,1.58-1.52,2.18-.57.5-1.32.86-2.02.96-2.53.09-5.17.07-7.77,0,.81-1.39,1.29-3.06,1.32-4.83,0-.15.03-.57.1-1.14.07-.61.23-1.54.65-2.48.31-.68,1.02-1.94,2.31-2.81.99-.68,2.49-.88,3.74-.56.98.26,2.38,1.18,3.12,2.96.34.81.53,1.69.53,2.8.03,1.05-.12,1.98-.47,2.9Zm34.25,16.54c-.19.51-.55,1.02-1,1.41-.34.3-.82.53-1.25.6-1.62.06-3.29.06-4.97.04.28-.91.45-1.89.47-2.91,0-.13.03-.46.08-.89.06-.46.16-1.07.44-1.69.22-.47.71-1.36,1.62-1.97.64-.45,1.72-.56,2.54-.35.69.18,1.58.84,2.03,1.92.16.37.34.96.35,1.9.02.72-.08,1.32-.31,1.94Zm52.43,13.03c-.78,2.04-2.08,3.93-3.67,5.33-1.49,1.32-3.38,2.19-5.2,2.41-2.02.07-4.07.1-6.15.1-5.23,0-10.69-.2-15.33-.4-4.87-.22-9.77-.51-14.63-.83.38-.26.77-.49,1.14-.79,2.65-2.16,4.81-5.12,6.34-8.5.91,3.69,3.59,6.33,6.78,6.45h.22c4,0,7.22-3.89,7.33-8.78,0-.19.05-1.02.2-2.29.16-1.32.5-3.35,1.51-5.57.85-1.85,2.42-4.43,5.12-6.25,2.36-1.64,5.67-2.15,8.61-1.39,3.18.85,6.07,3.57,7.57,7.17.83,1.96,1.27,4.12,1.29,6.5.07,2.43-.3,4.67-1.11,6.82Z"/>
        <path class="cls-13" d="m59.23,105.44s.89-.35,2.57-1c1.68-.63,4.2-1.44,7.42-2.28,6.45-1.61,15.82-3.01,27.09-3.37,11.27-.42,24.41-.04,38.45.88,14.04.87,28.98,2.13,43.91,2.81,7.42.31,14.99.55,22.15.29,3.15-.31,6.34-1.76,8.9-4.02,2.58-2.27,4.66-5.31,5.96-8.74,1.3-3.46,1.89-7.08,1.78-10.89-.02-3.68-.79-7.19-2.1-10.29-2.6-6.26-7.46-10.37-12.35-11.67-5.01-1.3-9.85-.25-13.54,2.31-3.73,2.51-6.26,6.2-7.8,9.55-1.54,3.41-2.1,6.51-2.36,8.61-.25,2.11-.28,3.3-.28,3.3,0,.18-.13.32-.27.32-.13,0-.24-.13-.25-.29v-.03s-.12-1.14-.14-3.39c0-2.23.29-5.58,1.57-9.55,1.29-3.94,3.77-8.46,7.88-11.91,2.05-1.69,4.49-3.06,7.22-3.84,2.78-.79,5.67-.94,8.76-.38,6.15,1.08,12.51,5.96,16.13,13.84,1.8,3.9,2.89,8.53,2.99,13.26.16,4.59-.56,9.65-2.39,14.03-1.79,4.41-4.52,8.31-7.93,11.09-3.43,2.76-7.4,4.39-11.61,4.59-7.59,0-14.99-.55-22.52-1.09-14.99-1.16-29.91-2.89-43.89-4.2-13.98-1.3-27.04-2.31-38.24-2.35-11.2-.11-20.51.89-26.95,2.21-3.22.7-5.71,1.39-7.4,1.95-1.69.58-2.59.9-2.59.9-.14.05-.29-.05-.32-.23-.04-.17.04-.35.17-.4Z"/>
        <path class="cls-13" d="m76.96,85.48s.49-.19,1.42-.55c.93-.35,2.32-.8,4.09-1.26,3.56-.89,8.72-1.66,14.94-1.86,6.21-.23,13.47-.02,21.21.49,7.74.48,15.99,1.17,24.22,1.55,4.1.17,8.27.31,12.22.16,1.74-.17,3.5-.97,4.91-2.22,1.42-1.25,2.57-2.93,3.29-4.82.72-1.91,1.04-3.91.98-6.01-.01-2.03-.44-3.97-1.16-5.68-1.43-3.45-4.12-5.72-6.81-6.44-2.76-.72-5.43-.14-7.47,1.28-2.06,1.38-3.45,3.42-4.3,5.27-.85,1.88-1.16,3.59-1.3,4.75-.14,1.16-.15,1.82-.15,1.82,0,.1-.07.18-.15.17-.07,0-.13-.07-.14-.16v-.02s-.07-.63-.08-1.87c0-1.23.16-3.08.87-5.27.71-2.17,2.08-4.67,4.34-6.57,1.13-.93,2.48-1.69,3.98-2.12,1.53-.43,3.13-.52,4.83-.21,3.39.6,6.9,3.28,8.9,7.63,1,2.15,1.59,4.71,1.65,7.31.09,2.53-.31,5.32-1.32,7.74-.98,2.43-2.5,4.58-4.37,6.12-1.89,1.52-4.08,2.42-6.4,2.53-4.18,0-8.27-.3-12.42-.6-8.27-.64-16.49-1.6-24.21-2.32-7.71-.72-14.91-1.28-21.09-1.29-6.18-.06-11.31.49-14.87,1.22-1.77.39-3.15.77-4.08,1.08-.93.32-1.43.49-1.43.49-.08.03-.16-.03-.18-.13-.02-.09.02-.19.1-.22Z"/>
        <path class="cls-13" d="m28.88,70.31s.57-.22,1.64-.64c1.08-.4,2.69-.92,4.75-1.46,4.13-1.03,10.12-1.92,17.33-2.16,7.21-.27,15.62-.03,24.61.56,8.98.56,18.55,1.36,28.1,1.8,4.75.2,9.6.35,14.17.18,2.02-.2,4.06-1.13,5.69-2.58,1.65-1.45,2.98-3.4,3.82-5.59.83-2.21,1.21-4.53,1.14-6.97-.01-2.36-.5-4.6-1.34-6.59-1.66-4-4.77-6.64-7.9-7.47-3.21-.83-6.3-.16-8.67,1.48-2.39,1.6-4,3.96-5,6.11-.98,2.18-1.34,4.16-1.51,5.51-.16,1.35-.18,2.11-.18,2.11,0,.12-.08.21-.17.2-.08,0-.15-.08-.16-.18v-.02s-.08-.73-.09-2.17c0-1.43.18-3.57,1.01-6.11.82-2.52,2.41-5.42,5.04-7.62,1.31-1.08,2.87-1.96,4.62-2.46,1.78-.5,3.63-.6,5.61-.24,3.93.69,8,3.81,10.32,8.85,1.15,2.5,1.85,5.46,1.91,8.49.1,2.94-.36,6.18-1.53,8.98-1.14,2.83-2.9,5.32-5.07,7.1-2.2,1.76-4.74,2.81-7.43,2.94-4.85,0-9.59-.35-14.41-.7-9.6-.74-19.14-1.85-28.09-2.69-8.95-.83-17.3-1.48-24.47-1.5-7.17-.07-13.13.57-17.25,1.42-2.06.45-3.65.89-4.74,1.25-1.08.37-1.66.57-1.66.57-.09.03-.18-.03-.21-.15-.02-.11.03-.22.11-.26Z"/>
      </g>
    </g>
  </g>
</svg>