<?xml version="1.0" encoding="UTF-8"?>
<svg id="Layer_2" data-name="Layer 2" xmlns="http://www.w3.org/2000/svg" viewBox="0 0 697 255">
  <defs>
    <style>
      .cls-1 {
        fill: #ff5e14;
      }

      .cls-1, .cls-2, .cls-3, .cls-4, .cls-5, .cls-6, .cls-7, .cls-8, .cls-9, .cls-10, .cls-11, .cls-12, .cls-13, .cls-14, .cls-15 {
        stroke-width: 0px;
      }

      .cls-2 {
        fill: #523226;
      }

      .cls-16 {
        opacity: .88;
      }

      .cls-3 {
        fill: #ff7614;
      }

      .cls-4 {
        fill: #24b500;
      }

      .cls-5 {
        fill: #332018;
      }

      .cls-6 {
        fill: #613d2d;
      }

      .cls-7 {
        opacity: .2;
      }

      .cls-8 {
        fill: #333;
      }

      .cls-9 {
        fill: #ccc;
      }

      .cls-10 {
        fill: #94360c;
      }

      .cls-11 {
        fill: #38acff;
      }

      .cls-12 {
        fill: #bf8452;
      }

      .cls-13 {
        fill: #4a2e23;
      }

      .cls-14 {
        fill: #663f30;
      }

      .cls-15 {
        fill: #c69c6d;
      }
    </style>
  </defs>
  <g id="fire_dark" data-name="fire dark">
    <g class="cls-16">
      <rect class="cls-15" x=".5" y=".5" width="696" height="254" rx="69.5" ry="69.5"/>
      <path class="cls-9" d="m627,1c38.05,0,69,30.95,69,69v115c0,38.05-30.95,69-69,69H70C31.95,254,1,223.05,1,185v-115C1,31.95,31.95,1,70,1h557m0-1H70C31.34,0,0,31.34,0,70v115c0,38.66,31.34,70,70,70h557c38.66,0,70-31.34,70-70v-115c0-38.66-31.34-70-70-70h0Z"/>
    </g>
    <g>
      <path class="cls-8" d="m250.17,88.42v72.06h-20.17v-50.15l-14.04,50.15h-11.67l-14.41-49.31v49.31h-7.02v-72.06h21.22l12.35,43.5,12.3-43.5h21.43Z"/>
      <path class="cls-8" d="m316.79,88.42v48.36c0,16.58-9.17,24.87-27.5,24.87s-27.4-8.29-27.4-24.87v-48.36h20.91v48.99c0,6.33.91,10.66,2.72,12.99,1.81,2.32,5.17,3.48,10.06,3.48,9.47,0,14.2-5.7,14.2-17.11v-48.36h7.02Z"/>
      <path class="cls-8" d="m328.14,160.48v-72.06h29.88c21.22,0,31.83,12.04,31.83,36.11s-11,35.95-32.99,35.95h-28.72Zm20.91-5.97h5.49c5.03,0,8.52-2.17,10.45-6.52,1.93-4.35,2.9-12.2,2.9-23.57s-.96-19.22-2.88-23.54c-1.92-4.33-5.41-6.49-10.48-6.49h-5.49v60.13Z"/>
      <path class="cls-8" d="m446.18,108.59l-9.71,1.79c.42-1.94.63-3.55.63-4.86,0-8.38-5.09-12.56-15.26-12.56-8.02,0-12.04,2.89-12.04,8.66,0,4.33,4.49,8.04,13.46,11.14,17.32,5.95,25.97,14.75,25.97,26.4,0,6.83-2.43,12.31-7.29,16.44-4.86,4.14-11.32,6.2-19.37,6.2-17.84,0-26.77-6.92-26.77-20.75,0-1.13.09-2.52.26-4.17l10.08-2.22c-.77,3.06-1.16,5.72-1.16,7.97,0,8.94,5.12,13.41,15.36,13.41,8.2,0,12.3-3.22,12.3-9.66,0-4.79-4.91-8.99-14.73-12.62-14.18-5.21-21.28-13.53-21.28-24.97,0-6.48,2.37-11.69,7.1-15.65,4.73-3.96,10.95-5.94,18.66-5.94,15.84,0,23.76,7.13,23.76,21.38Z"/>
      <path class="cls-8" d="m479.34,88.42v64.83h29.62v7.23h-50.52v-72.06h20.91Z"/>
      <path class="cls-8" d="m534.34,88.42v72.06h-20.91v-72.06h20.91Z"/>
      <path class="cls-8" d="m546.86,160.48v-72.06h29.88c21.22,0,31.83,12.04,31.83,36.11s-11,35.95-32.99,35.95h-28.72Zm20.91-5.97h5.49c5.03,0,8.52-2.17,10.45-6.52,1.93-4.35,2.9-12.2,2.9-23.57s-.96-19.22-2.88-23.54c-1.92-4.33-5.41-6.49-10.48-6.49h-5.49v60.13Z"/>
      <path class="cls-8" d="m664.48,88.42v7.23h-25.82v21.8h21.7v7.23h-21.7v28.56h30.2v7.23h-51.1v-72.06h46.72Z"/>
    </g>
    <g>
      <g>
        <path class="cls-6" d="m60.11,87.05l3.89,9.85-.61-4.8s1.72,2.59,1.78,1.91c.06-.68.25-2.84.25-2.84,0,0,2.09,5.72,2.78,5.32s-.05-5.21-.05-5.21c0,0,2.54,4.29,3.55,3.99,1-.3-.54-5.76-.54-5.76l5.57.5s.99,7.67,1.66,7.65c.67-.02,1.18-7.39,1.18-7.39l1.05,2.78.17-1.94s3.4,2.94,3.78,2.88.16-1.78.16-1.78c0,0,3.95,4.93,4.52,4.73.57-.19.45-5.04.45-5.04,0,0,1.45,4.28,2.19,4.1.74-.18.94-3.82.94-3.82l2.29,1.64s1.37,4.74,1.94,4.6c.57-.14,1.22-6.48,1.22-6.48,0,0,1.63,3.47,2.23,3.47.6,0,1.75-3.11,1.75-3.11l2.35.21s3.56,7.15,3.69,5.36c.13-1.79,1.3-3.92,1.3-3.92,0,0,2.87,7.2,3.21,5.36s-.65-5.26-.65-5.26c0,0,2.7,3.33,3.32,2.95.62-.38-.14-3.53-.14-3.53l1.68.15s1.48,5.11,2.2,4.73c.31-1.71,0-4.54,0-4.54,0,0,3.02,3.88,3.71,3.6.69-.28.75-2.6.75-2.6,0,0,2.79,4.45,3.28,4.07-.79-2.45-1.17-5.96-1.17-5.96l-65.67-5.87Z"/>
        <path class="cls-5" d="m123.59,95.68l-61.81-5.52c-1.07-.1-1.85-1.04-1.76-2.1l.09-1,65.67,5.87-.09,1c-.1,1.07-1.04,1.85-2.1,1.76Z"/>
        <g>
          <rect class="cls-1" x="104.41" y="38.53" width="19.78" height="7.21" transform="translate(62.16 152.23) rotate(-84.89)"/>
          <rect class="cls-10" x="115.71" y="36.98" width="1.07" height="2.24" transform="translate(67.96 150.49) rotate(-84.89)"/>
          <rect class="cls-10" x="114.47" y="38.38" width="1.07" height="2.24" transform="translate(65.42 150.52) rotate(-84.89)"/>
          <rect class="cls-10" x="115.26" y="42.11" width="1.07" height="2.24" transform="translate(62.43 154.71) rotate(-84.89)"/>
          <rect class="cls-10" x="112.42" y="35.07" width="1.07" height="2.24" transform="translate(66.86 145.48) rotate(-84.89)"/>
          <rect class="cls-7" x="113.85" y="30.64" width="2.3" height="7.21" transform="translate(70.66 145.74) rotate(-84.89)"/>
          <path class="cls-1" d="m118.28,34.04l-6.59-.59c-.71-.06-1.23-.68-1.17-1.37l.17-1.93c.06-.7.69-1.21,1.4-1.14l6.59.59c.71.06,1.23.68,1.17,1.37l-.17,1.93c-.06.7-.69,1.21-1.4,1.14Z"/>
        </g>
        <polygon class="cls-3" points="125.78 92.92 60.11 87.05 63.31 51.26 98.17 31.58 128.98 57.13 125.78 92.92"/>
        <rect class="cls-7" x="92.73" y="54.08" width=".97" height="65.93" transform="translate(-1.78 172.14) rotate(-84.89)"/>
        <rect class="cls-7" x="93" y="50.98" width=".97" height="65.93" transform="translate(1.56 169.59) rotate(-84.89)"/>
        <rect class="cls-7" x="93.28" y="47.88" width=".97" height="65.93" transform="translate(4.9 167.04) rotate(-84.89)"/>
        <rect class="cls-7" x="93.56" y="44.78" width=".97" height="65.93" transform="translate(8.23 164.49) rotate(-84.89)"/>
        <rect class="cls-7" x="93.83" y="41.68" width=".97" height="65.93" transform="translate(11.57 161.95) rotate(-84.89)"/>
        <rect class="cls-7" x="94.11" y="38.58" width=".97" height="65.93" transform="translate(14.91 159.4) rotate(-84.89)"/>
        <rect class="cls-7" x="94.39" y="35.48" width=".97" height="65.93" transform="translate(18.25 156.85) rotate(-84.89)"/>
        <rect class="cls-7" x="94.66" y="32.38" width=".97" height="65.93" transform="translate(21.59 154.31) rotate(-84.89)"/>
        <rect class="cls-7" x="94.94" y="29.28" width=".97" height="65.93" transform="translate(24.93 151.76) rotate(-84.89)"/>
        <rect class="cls-7" x="95.22" y="26.18" width=".97" height="65.93" transform="translate(28.27 149.21) rotate(-84.89)"/>
        <rect class="cls-7" x="95.49" y="23.09" width=".97" height="65.93" transform="translate(31.61 146.66) rotate(-84.89)"/>
        <rect class="cls-7" x="95.77" y="19.99" width=".97" height="65.93" transform="translate(34.95 144.12) rotate(-84.89)"/>
        <rect class="cls-7" x="95.87" y="22.9" width=".97" height="53.87" transform="translate(38.14 141.38) rotate(-84.89)"/>
        <rect class="cls-7" x="96.39" y="23.86" width=".97" height="45.8" transform="translate(41.68 139.09) rotate(-84.89)"/>
        <rect class="cls-7" x="96.56" y="25.7" width=".97" height="35.91" transform="translate(44.93 136.43) rotate(-84.89)"/>
        <rect class="cls-7" x="96.99" y="26.66" width=".97" height="27.81" transform="translate(48.4 134.05) rotate(-84.89)"/>
        <rect class="cls-7" x="97.44" y="28.27" width=".97" height="18.42" transform="translate(51.87 131.68) rotate(-84.89)"/>
        <rect class="cls-7" x="97.36" y="29.42" width=".97" height="9.86" transform="translate(54.93 128.76) rotate(-84.89)"/>
        <g>
          <path class="cls-14" d="m95.47,73.32h22.52c.46,0,.84.38.84.84v9.58c0,.46-.38.84-.84.84h-22.52c-.46,0-.84-.38-.84-.84v-9.58c0-.46.38-.84.84-.84Z" transform="translate(18.6 178.23) rotate(-84.89)"/>
          <polygon class="cls-13" points="112.31 92.57 98.86 91.37 99.07 88.88 112.51 90.08 112.31 92.57"/>
          <path class="cls-12" d="m105.02,78.08c-.07.81-.79,1.4-1.59,1.33-.81-.07-1.4-.79-1.33-1.59.07-.81.79-1.4,1.59-1.33.81.07,1.41.79,1.33,1.59Z"/>
        </g>
        <g>
          <g>
            <path class="cls-14" d="m65.84,62.29h14.64c.14,0,.25.11.25.25v9.15c0,.14-.11.25-.25.25h-14.64c-.14,0-.25-.11-.25-.25v-9.15c0-.14.11-.25.25-.25Z" transform="translate(-.19 134) rotate(-84.89)"/>
            <rect class="cls-11" x="69.44" y="66.41" width="6.62" height="7.75" transform="translate(-3.74 136.49) rotate(-84.89)"/>
            <polygon class="cls-7" points="76.31 73.93 68.59 73.24 69.18 66.65 76.31 73.93"/>
            <rect class="cls-11" x="70.81" y="59.51" width="5.1" height="7.75" transform="translate(3.7 130.82) rotate(-84.89)"/>
            <polygon class="cls-7" points="77 66.27 69.27 65.58 69.73 60.5 77 66.27"/>
          </g>
          <g>
            <path class="cls-14" d="m81.42,63.68h14.62c.14,0,.26.11.26.26v9.13c0,.14-.11.26-.26.26h-14.62c-.14,0-.26-.11-.26-.26v-9.13c0-.14.11-.26.26-.26Z" transform="translate(12.61 150.78) rotate(-84.89)"/>
            <rect class="cls-11" x="85.01" y="67.81" width="6.62" height="7.75" transform="translate(9.06 153.27) rotate(-84.89)"/>
            <polygon class="cls-7" points="91.89 75.33 84.16 74.64 84.75 68.04 91.89 75.33"/>
            <rect class="cls-11" x="86.39" y="60.9" width="5.1" height="7.75" transform="translate(16.5 147.6) rotate(-84.89)"/>
            <polygon class="cls-7" points="92.57 67.66 84.85 66.97 85.3 61.89 92.57 67.66"/>
          </g>
        </g>
        <path class="cls-7" d="m128.64,60.92l-29.9-25.29c-.56-.48-1.37-.55-2.01-.18l-33.77,19.6.34-3.79,34.86-19.68,30.81,25.55-.34,3.79Z"/>
        <path class="cls-14" d="m56.45,53.44l41.45-23.97c.36-.21.81-.16,1.12.11l35.52,30.8c.21.18.28.48.17.74l-.6,1.35c-.17.39-.68.51-1,.23l-33.69-29.09c-.73-.64-1.79-.74-2.63-.25l-39.36,22.67c-.37.21-.85,0-.94-.41l-.34-1.48c-.06-.27.06-.56.3-.7Z"/>
        <path class="cls-14" d="m101.63,47.39c-.23,2.62-2.55,4.56-5.17,4.33-2.62-.23-4.56-2.55-4.33-5.17.23-2.62,2.55-4.56,5.17-4.33,2.62.23,4.56,2.55,4.33,5.17Z"/>
        <path class="cls-11" d="m100.86,47.31c-.2,2.19-2.13,3.81-4.33,3.62-2.19-.2-3.81-2.13-3.62-4.33.2-2.19,2.13-3.81,4.33-3.62,2.19.2,3.81,2.13,3.62,4.33Z"/>
        <path class="cls-7" d="m99.44,50.02c-1.69,1.41-4.21,1.19-5.62-.5-1.41-1.69-1.19-4.21.5-5.62l5.12,6.12Z"/>
        <rect class="cls-14" x="92.46" y="46.36" width="8.86" height="1.2" transform="translate(41.5 139.29) rotate(-84.9)"/>
        <rect class="cls-14" x="96.33" y="42.78" width="1.11" height="8.37" transform="translate(41.48 139.29) rotate(-84.89)"/>
        <path class="cls-6" d="m101.83,100.02c-.08.91-.88,1.58-1.79,1.5-.91-.08-1.58-.88-1.5-1.79.08-.91.88-1.58,1.79-1.5s1.58.88,1.5,1.79Z"/>
        <path class="cls-6" d="m98.86,103.75c-.04.43-.42.74-.84.7-.43-.04-.74-.42-.7-.84.04-.43.42-.74.84-.7.43.04.74.42.7.84Z"/>
        <path class="cls-6" d="m88.77,99.81c-.03.38-.37.67-.76.63-.38-.03-.67-.37-.63-.76.03-.38.37-.67.76-.63.38.03.67.37.63.76Z"/>
        <path class="cls-6" d="m81.6,101.43c-.08.86-.83,1.49-1.69,1.41-.86-.08-1.49-.83-1.41-1.69.08-.86.83-1.49,1.69-1.41.86.08,1.49.83,1.41,1.69Z"/>
        <path class="cls-6" d="m113.56,102.06c-.04.4-.39.7-.79.66-.4-.04-.7-.39-.66-.79.04-.4.39-.7.79-.66.4.04.7.39.66.79Z"/>
        <path class="cls-6" d="m117.96,104.6c-.08.88-.86,1.53-1.74,1.46s-1.53-.86-1.46-1.74c.08-.88.86-1.53,1.74-1.46.88.08,1.53.86,1.46,1.74Z"/>
        <path class="cls-6" d="m120.42,113.61c-.11,1.27-1.24,2.21-2.51,2.1-1.27-.11-2.21-1.24-2.1-2.51.11-1.27,1.24-2.21,2.51-2.1,1.27.11,2.21,1.24,2.1,2.51Z"/>
        <path class="cls-6" d="m123,106.16c-.05.61-.59,1.06-1.2,1.01-.61-.05-1.06-.59-1.01-1.2s.59-1.06,1.2-1.01c.61.05,1.06.59,1.01,1.2Z"/>
        <path class="cls-6" d="m128.86,119.05c-.05.61-.59,1.06-1.2,1.01s-1.06-.59-1.01-1.2c.05-.61.59-1.06,1.2-1.01s1.06.59,1.01,1.2Z"/>
        <path class="cls-6" d="m123.96,109.7c-.03.29-.29.51-.58.49s-.51-.29-.49-.58c.03-.29.29-.51.58-.49.3.03.51.29.49.58Z"/>
        <path class="cls-6" d="m124.46,99.65c-.04.4-.39.7-.79.66-.4-.04-.7-.39-.66-.79.04-.4.39-.7.79-.66.4.04.7.39.66.79Z"/>
        <path class="cls-6" d="m71.93,100.32c-.04.48-.46.83-.94.79-.48-.04-.83-.46-.79-.94.04-.48.46-.83.94-.79.48.04.83.46.79.94Z"/>
        <path class="cls-6" d="m76.24,95.78c-.06.64-.62,1.12-1.27,1.06s-1.12-.62-1.06-1.27c.06-.64.62-1.12,1.27-1.06.64.06,1.12.62,1.06,1.27Z"/>
        <path class="cls-6" d="m67.27,102.25c-.06.72-.7,1.26-1.42,1.19-.72-.06-1.26-.7-1.19-1.42s.7-1.26,1.42-1.19c.72.06,1.26.7,1.19,1.42Z"/>
      </g>
      <g>
        <polygon class="cls-14" points="35.67 214.92 27.6 92.29 108.04 94.75 122.76 138.92 140.61 143.03 147.95 164.49 167.05 168.78 183.14 214.92 35.67 214.92"/>
        <path class="cls-4" d="m122.41,138.59v.09c-.3,2.2,1.13,4.26,3.3,4.77l11.9,2.77c2.41.56,4.8-1.02,5.24-3.46l.08-.45c.41-2.31-1.1-4.53-3.41-4.99l-11.97-2.4c-2.46-.49-4.82,1.2-5.14,3.68Z"/>
        <path class="cls-4" d="m147.76,166.36v.09c-.04,2.22,1.61,4.11,3.81,4.37l12.13,1.44c2.46.29,4.66-1.54,4.82-4.01l.03-.46c.15-2.35-1.59-4.38-3.94-4.59l-12.16-1.07c-2.5-.22-4.66,1.72-4.7,4.23Z"/>
        <polygon class="cls-2" points="28.48 105.56 44.46 103.67 59.07 112.69 72.43 106.5 80.06 138.74 78.15 103.67 90.17 105.14 91.85 115.76 93.17 103.83 106.15 104.28 109.46 110.74 111.25 105.14 109.03 97.72 28.48 94.51 28.48 105.56"/>
        <path class="cls-4" d="m104.77,101.89H28.98c-4.04,0-7.31-3.27-7.31-7.31v-.15c0-4.04,3.27-7.31,7.31-7.31l78.92,6.94c2.71.34,4,3.66,2.1,5.62-1.33,1.37-3.19,2.22-5.24,2.22Z"/>
        <polygon class="cls-2" points="75.4 214.92 72.12 155.8 84.16 202.41 89.33 194.86 91.19 205.37 110.6 208.65 110.6 214.92 75.4 214.92"/>
        <polygon class="cls-2" points="102.06 114.65 117.29 166.31 119.03 151.54 102.06 114.65"/>
        <polygon class="cls-2" points="137.35 166.31 150.89 204.79 162.95 204.79 137.35 166.31"/>
        <polygon class="cls-2" points="41.01 131.51 45.94 185.55 48.56 140.48 41.01 131.51"/>
      </g>
    </g>
  </g>
</svg>