<?xml version="1.0" encoding="UTF-8"?>
<svg id="Layer_2" data-name="Layer 2" xmlns="http://www.w3.org/2000/svg" viewBox="0 0 697 255">
  <defs>
    <style>
      .cls-1 {
        fill: #abd9ff;
      }

      .cls-1, .cls-2, .cls-3, .cls-4, .cls-5, .cls-6, .cls-7, .cls-8, .cls-9, .cls-10, .cls-11, .cls-12, .cls-13, .cls-14, .cls-15 {
        stroke-width: 0px;
      }

      .cls-2 {
        fill: #332018;
      }

      .cls-3 {
        fill: #63abe8;
      }

      .cls-4 {
        fill: #8cbed4;
      }

      .cls-5 {
        fill: #bde1ff;
      }

      .cls-6 {
        opacity: .2;
      }

      .cls-7 {
        fill: #333;
      }

      .cls-8 {
        fill: #ccc;
      }

      .cls-9 {
        fill: #5696cc;
      }

      .cls-10 {
        fill: #477aa6;
      }

      .cls-16 {
        opacity: .62;
      }

      .cls-11 {
        fill: #4a2e23;
      }

      .cls-12 {
        fill: #3891a1;
      }

      .cls-13 {
        fill: #b5e0ff;
      }

      .cls-14 {
        fill: #0075b2;
      }

      .cls-15 {
        opacity: .1;
      }
    </style>
  </defs>
  <g id="fire_dark" data-name="fire dark">
    <g class="cls-16">
      <rect class="cls-14" x=".5" y=".5" width="696" height="254" rx="69.5" ry="69.5"/>
      <path class="cls-8" d="m627,1c38.05,0,69,30.95,69,69v115c0,38.05-30.95,69-69,69H70C31.95,254,1,223.05,1,185v-115C1,31.95,31.95,1,70,1h557m0-1H70C31.34,0,0,31.34,0,70v115c0,38.66,31.34,70,70,70h557c38.66,0,70-31.34,70-70v-115c0-38.66-31.34-70-70-70h0Z"/>
    </g>
    <g>
      <path class="cls-7" d="m276.95,113.62l-9.09,1.68c.4-1.81.59-3.33.59-4.55,0-7.84-4.76-11.76-14.28-11.76-7.51,0-11.27,2.7-11.27,8.11,0,4.05,4.2,7.53,12.6,10.43,16.21,5.57,24.32,13.81,24.32,24.71,0,6.39-2.27,11.52-6.82,15.4-4.55,3.87-10.59,5.81-18.14,5.81-16.71,0-25.06-6.48-25.06-19.42,0-1.05.08-2.36.25-3.9l9.44-2.08c-.72,2.87-1.09,5.35-1.09,7.46,0,8.37,4.79,12.55,14.38,12.55,7.68,0,11.52-3.01,11.52-9.04,0-4.48-4.6-8.42-13.79-11.81-13.28-4.88-19.92-12.67-19.92-23.38,0-6.06,2.22-10.95,6.65-14.65s10.26-5.56,17.47-5.56c14.83,0,22.24,6.67,22.24,20.02Z"/>
      <path class="cls-7" d="m337.75,94.74v67.47h-14.98l-28.17-42.7v42.7h-6.57v-67.47h12.41l30.74,46.11v-46.11h6.57Z"/>
      <path class="cls-7" d="m376.6,93.55c19.64,0,29.46,11.63,29.46,34.89s-10,34.89-30,34.89-30-11.89-30-35.69,10.18-34.1,30.55-34.1Zm-.54,5.39c-3.69,0-6.19,2.03-7.49,6.1-1.3,4.07-1.95,11.87-1.95,23.4s.65,19.33,1.95,23.4c1.3,4.07,3.8,6.1,7.49,6.1s6.19-2.03,7.49-6.1c1.3-4.07,1.95-11.87,1.95-23.4s-.65-19.29-1.95-23.38c-1.3-4.09-3.8-6.13-7.49-6.13Z"/>
      <path class="cls-7" d="m488.54,94.74l-18.39,67.47h-12.75l-9.39-36.82-9.54,36.82h-12.75l-17.4-67.47h19.67l10.23,40.92,10.23-40.92h11.52l10.08,41.07,10.77-41.07h7.71Z"/>
      <path class="cls-7" d="m486.87,179.06l33.12-84.32h7.12l-33.12,84.32h-7.12Z"/>
      <path class="cls-7" d="m556.55,94.74v67.47h-19.57v-67.47h19.57Z"/>
      <path class="cls-7" d="m612.95,135.12l8.35,2.17c.13,1.71.2,3.2.2,4.45,0,6.56-2.37,11.8-7.12,15.72-4.75,3.92-11.1,5.88-19.08,5.88-20,0-30-11.25-30-33.76,0-10.68,2.92-19.33,8.75-25.97,5.83-6.64,13.43-9.96,22.79-9.96,14.6,0,21.9,7.02,21.9,21.06l-8.4,3.85c.1-1.98.15-3.51.15-4.6,0-9.95-3.99-14.93-11.96-14.93-8.44,0-12.65,10.56-12.65,31.68,0,18.16,4.71,27.23,14.14,27.23,3.89,0,7.12-1.55,9.71-4.65,2.59-3.1,3.88-6.97,3.88-11.62,0-1.48-.21-3.67-.64-6.57Z"/>
      <path class="cls-7" d="m672.61,94.74v6.77h-24.17v20.41h20.31v6.77h-20.31v26.74h28.27v6.77h-47.84v-67.47h43.74Z"/>
    </g>
    <g>
      <polygon class="cls-5" points="201.88 149.7 187.69 133.72 196.08 133.72 179.3 114.83 162.53 133.72 170.91 133.72 156.73 149.7 168.01 149.7 151.9 167.84 206.7 167.84 190.59 149.7 201.88 149.7"/>
      <path class="cls-4" d="m154.29,165.15l-2.39,2.69h54.8l-1.65-1.86s-7.12-3.31-12.1-3.26c-3.56.04-6.35,1.35-10.11,1.07-4.55-.34-11.17-1.34-13.72-1.34-7.58,0-14.83,2.69-14.83,2.69Z"/>
      <polygon class="cls-4" points="170.91 133.72 166.58 138.69 192.04 138.69 187.69 133.72 170.91 133.72"/>
      <polygon class="cls-4" points="168.01 149.7 164.03 154.14 194.51 154.14 190.59 149.7 168.01 149.7"/>
      <polygon class="cls-9" points="159.6 156.79 158.88 149.7 160.33 149.7 159.6 156.79"/>
      <polygon class="cls-9" points="176.98 156.79 176.25 149.7 177.71 149.7 176.98 156.79"/>
      <polygon class="cls-9" points="178.24 140.01 177.52 133.72 178.97 133.72 178.24 140.01"/>
      <polygon class="cls-9" points="186.47 140.01 185.74 133.72 187.2 133.72 186.47 140.01"/>
      <polygon class="cls-9" points="170.35 140.01 169.62 133.72 171.08 133.72 170.35 140.01"/>
      <polygon class="cls-9" points="164.76 140.01 164.03 133.72 165.48 133.72 164.76 140.01"/>
      <polygon class="cls-9" points="192.32 156.79 191.59 149.7 193.05 149.7 192.32 156.79"/>
      <polygon class="cls-9" points="199.76 156.79 199.04 149.7 200.49 149.7 199.76 156.79"/>
      <polygon class="cls-9" points="162.31 154.05 161.58 149.7 163.04 149.7 162.31 154.05"/>
      <polygon class="cls-9" points="168 154.05 167.27 149.7 168.73 149.7 168 154.05"/>
      <polygon class="cls-9" points="171.08 154.05 170.35 149.7 171.81 149.7 171.08 154.05"/>
      <polygon class="cls-9" points="194.51 154.05 193.78 149.7 195.23 149.7 194.51 154.05"/>
      <polygon class="cls-9" points="183.22 154.05 182.49 149.7 183.95 149.7 183.22 154.05"/>
      <polygon class="cls-9" points="180.77 137.59 180.04 133.72 181.49 133.72 180.77 137.59"/>
      <polygon class="cls-9" points="167.63 137.59 166.91 133.72 168.36 133.72 167.63 137.59"/>
      <polygon class="cls-9" points="183.95 137.59 183.22 133.72 184.67 133.72 183.95 137.59"/>
      <polygon class="cls-9" points="191.59 137.59 190.86 133.72 192.32 133.72 191.59 137.59"/>
      <polygon class="cls-9" points="197.57 154.05 196.84 149.7 198.3 149.7 197.57 154.05"/>
      <polygon class="cls-9" points="189.31 154.05 188.58 149.7 190.04 149.7 189.31 154.05"/>
      <polygon class="cls-9" points="186.11 154.05 185.38 149.7 186.84 149.7 186.11 154.05"/>
      <polygon class="cls-9" points="165.02 155.26 164.29 149.7 165.75 149.7 165.02 155.26"/>
      <polygon class="cls-9" points="173.96 155.26 173.23 149.7 174.68 149.7 173.96 155.26"/>
      <polygon class="cls-9" points="175.81 138.66 175.08 133.72 176.53 133.72 175.81 138.66"/>
      <polygon class="cls-9" points="194.22 138.66 193.49 133.72 194.95 133.72 194.22 138.66"/>
      <polygon class="cls-9" points="173.23 138.66 172.5 133.72 173.96 133.72 173.23 138.66"/>
      <polygon class="cls-9" points="189.31 138.66 188.58 133.72 190.04 133.72 189.31 138.66"/>
      <polygon class="cls-9" points="180.04 155.26 179.31 149.7 180.77 149.7 180.04 155.26"/>
    </g>
    <g>
      <path class="cls-2" d="m142.51,183.51l-96.37-.13c-1.66,0-3.01-1.35-3.01-3.01v-1.56s102.39.14,102.39.14v1.56c0,1.66-1.35,3.01-3.02,3.01Z"/>
      <polygon class="cls-1" points="145.52 178.94 43.13 178.8 43.21 123 94.45 87.82 145.6 123.15 145.52 178.94"/>
      <rect class="cls-6" x="93.58" y="123.09" width="1.51" height="102.39" transform="translate(-80.09 268.38) rotate(-89.92)"/>
      <rect class="cls-6" x="93.58" y="118.26" width="1.51" height="102.39" transform="translate(-75.25 263.56) rotate(-89.92)"/>
      <rect class="cls-6" x="93.59" y="113.43" width="1.51" height="102.39" transform="translate(-70.41 258.74) rotate(-89.92)"/>
      <rect class="cls-6" x="93.6" y="108.6" width="1.51" height="102.39" transform="translate(-65.57 253.92) rotate(-89.92)"/>
      <rect class="cls-6" x="93.6" y="103.76" width="1.51" height="102.39" transform="translate(-60.73 249.1) rotate(-89.92)"/>
      <rect class="cls-6" x="93.61" y="98.93" width="1.51" height="102.39" transform="translate(-55.89 244.28) rotate(-89.92)"/>
      <rect class="cls-6" x="93.62" y="94.1" width="1.51" height="102.39" transform="translate(-51.06 239.47) rotate(-89.92)"/>
      <rect class="cls-6" x="93.62" y="89.27" width="1.51" height="102.39" transform="translate(-46.22 234.65) rotate(-89.92)"/>
      <rect class="cls-6" x="93.63" y="84.44" width="1.51" height="102.39" transform="translate(-41.38 229.83) rotate(-89.92)"/>
      <rect class="cls-6" x="93.64" y="79.6" width="1.51" height="102.39" transform="translate(-36.54 225.01) rotate(-89.92)"/>
      <rect class="cls-6" x="93.64" y="74.77" width="1.51" height="102.39" transform="translate(-31.7 220.19) rotate(-89.92)"/>
      <rect class="cls-6" x="93.65" y="69.94" width="1.51" height="102.39" transform="translate(-26.86 215.37) rotate(-89.92)"/>
      <rect class="cls-6" x="93.38" y="74.48" width="1.51" height="83.65" transform="translate(-22.3 210.28) rotate(-89.92)"/>
      <rect class="cls-6" x="93.77" y="75.91" width="1.51" height="71.12" transform="translate(-17.08 205.84) rotate(-89.92)"/>
      <rect class="cls-6" x="93.6" y="78.76" width="1.51" height="55.76" transform="translate(-12.42 200.85) rotate(-89.92)"/>
      <rect class="cls-6" x="93.86" y="80.22" width="1.51" height="43.19" transform="translate(-7.33 196.28) rotate(-89.92)"/>
      <rect class="cls-6" x="94.12" y="82.67" width="1.51" height="28.61" transform="translate(-2.23 191.72) rotate(-89.92)"/>
      <rect class="cls-6" x="93.58" y="84.49" width="1.51" height="15.31" transform="translate(2.06 186.35) rotate(-89.92)"/>
      <g>
        <path class="cls-3" d="m96.66,151.18h34.98c.72,0,1.31.59,1.31,1.31v14.88c0,.72-.59,1.31-1.31,1.31h-34.98c-.72,0-1.31-.59-1.31-1.31v-14.88c0-.72.59-1.31,1.31-1.31Z" transform="translate(-45.94 273.85) rotate(-89.92)"/>
        <polygon class="cls-11" points="124.62 180.24 103.67 180.21 103.64 176.33 124.6 176.35 124.62 180.24"/>
        <path class="cls-10" d="m110.46,157.94c0,.75-.61,1.36-1.37,1.36-.75,0-1.36-.61-1.36-1.37,0-.75.61-1.36,1.37-1.36.75,0,1.37.61,1.36,1.37Z"/>
      </g>
      <g>
        <g>
          <rect class="cls-3" x="48.85" y="138.69" width="23.5" height="14.97" rx=".38" ry=".38" transform="translate(-85.66 206.57) rotate(-89.92)"/>
          <rect class="cls-13" x="55.25" y="145.14" width="10.28" height="12.04" transform="translate(-90.85 211.34) rotate(-89.92)"/>
          <polygon class="cls-15" points="66.41 156.31 54.36 156.29 54.38 146.01 66.41 156.31"/>
          <rect class="cls-13" x="56.45" y="134.37" width="7.92" height="12.04" transform="translate(-80.07 200.6) rotate(-89.92)"/>
          <polygon class="cls-15" points="66.42 144.36 54.38 144.34 54.39 136.42 66.42 144.36"/>
        </g>
        <g>
          <path class="cls-3" d="m73.53,138.72h22.71c.22,0,.4.18.4.4v14.18c0,.22-.18.4-.4.4h-22.71c-.22,0-.4-.18-.4-.4v-14.18c0-.22.18-.4.4-.4Z" transform="translate(-61.44 230.88) rotate(-89.92)"/>
          <rect class="cls-13" x="79.53" y="145.17" width="10.28" height="12.04" transform="translate(-66.64 235.66) rotate(-89.92)"/>
          <polygon class="cls-15" points="90.69 156.34 78.65 156.32 78.66 146.04 90.69 156.34"/>
          <rect class="cls-13" x="80.73" y="134.4" width="7.92" height="12.04" transform="translate(-55.85 224.92) rotate(-89.92)"/>
          <polygon class="cls-15" points="90.71 144.39 78.66 144.37 78.67 136.46 90.71 144.39"/>
        </g>
      </g>
      <path class="cls-6" d="m145.59,135.75l-49.69-35.06c-.94-.66-2.19-.66-3.13,0l-49.57,34.92v-12.6s51.25-35.19,51.25-35.19l51.15,35.33v12.6Z"/>
      <path class="cls-3" d="m101.96,111.8c0,4.09-3.33,7.4-7.42,7.4-4.09,0-7.4-3.33-7.4-7.42,0-4.09,3.33-7.4,7.42-7.4,4.09,0,7.4,3.33,7.4,7.42Z"/>
      <path class="cls-13" d="m100.75,111.78c0,3.42-2.78,6.19-6.2,6.19-3.42,0-6.19-2.78-6.19-6.2,0-3.42,2.78-6.19,6.2-6.19,3.42,0,6.19,2.78,6.19,6.2Z"/>
      <path class="cls-15" d="m98.93,116.16c-2.42,2.42-6.34,2.41-8.76-.01s-2.41-6.34.01-8.76l8.75,8.77Z"/>
      <rect class="cls-3" x="87.68" y="110.84" width="13.75" height="1.86" transform="translate(-17.36 206.17) rotate(-89.92)"/>
      <rect class="cls-3" x="93.69" y="105.29" width="1.73" height="13" transform="translate(-17.37 206.2) rotate(-89.92)"/>
      <g>
        <polygon class="cls-9" points="37.11 147.88 35.74 131.4 38.47 131.4 37.11 147.88"/>
        <polygon class="cls-9" points="41.26 144.66 39.9 128.18 42.63 128.18 41.26 144.66"/>
        <polygon class="cls-9" points="45.81 141.62 44.44 125.14 47.18 125.14 45.81 141.62"/>
        <polygon class="cls-9" points="61.75 131.97 60.38 115.49 63.12 115.49 61.75 131.97"/>
        <polygon class="cls-9" points="71.65 125.36 70.29 108.88 73.02 108.88 71.65 125.36"/>
        <polygon class="cls-9" points="98.93 111.68 97.57 95.19 100.3 95.19 98.93 111.68"/>
        <polygon class="cls-9" points="104.96 116.96 103.6 100.47 106.33 100.47 104.96 116.96"/>
        <polygon class="cls-9" points="110.01 120.91 108.65 104.43 111.38 104.43 110.01 120.91"/>
        <polygon class="cls-9" points="128.72 135.04 127.35 118.55 130.08 118.55 128.72 135.04"/>
        <polygon class="cls-9" points="133.66 138.22 132.3 121.73 135.03 121.73 133.66 138.22"/>
        <polygon class="cls-9" points="148.59 147.88 147.23 131.4 149.96 131.4 148.59 147.88"/>
        <polygon class="cls-9" points="152.57 150.45 151.21 133.96 153.94 133.96 152.57 150.45"/>
        <polygon class="cls-9" points="51.73 133.96 50.37 121.73 53.1 121.73 51.73 133.96"/>
        <polygon class="cls-9" points="77.38 117.59 76.02 105.36 78.75 105.36 77.38 117.59"/>
        <polygon class="cls-9" points="120.86 124.77 119.49 112.54 122.22 112.54 120.86 124.77"/>
        <polygon class="cls-9" points="125.04 127.85 123.67 115.62 126.4 115.62 125.04 127.85"/>
        <polygon class="cls-9" points="138.78 137.74 137.42 125.51 140.15 125.51 138.78 137.74"/>
        <polygon class="cls-9" points="81.94 114.99 80.57 102.76 83.31 102.76 81.94 114.99"/>
        <polygon class="cls-9" points="90.72 108.72 89.35 96.49 92.08 96.49 90.72 108.72"/>
        <polygon class="cls-9" points="55.75 128.18 54.38 119.85 57.11 119.85 55.75 128.18"/>
        <polygon class="cls-9" points="66.47 121.28 65.11 112.95 67.84 112.95 66.47 121.28"/>
        <polygon class="cls-9" points="86.03 108.55 84.67 100.22 87.4 100.22 86.03 108.55"/>
        <polygon class="cls-9" points="115.26 117.2 113.89 108.88 116.62 108.88 115.26 117.2"/>
        <polygon class="cls-9" points="143.34 138.13 141.97 129.8 144.7 129.8 143.34 138.13"/>
        <polygon class="cls-9" points="95.5 102.77 94.14 94.44 96.87 94.44 95.5 102.77"/>
        <path class="cls-5" d="m30.65,126.79l63.87-44.86,14.66,6.95s2.16-7.03,3.34-8.41c1.19-1.38,3.14-2.18,5.43-1.98,2.28.2,9.41.36,11.58,3.45,2.17,3.08.11,5.47.55,6.95.44,1.47-.83,12.37,0,13.75.83,1.37,6.57,8.84,8.15,10.05,1.58,1.21,17.4,10.36,18.79,14.11s-1.58,7.96-3.16,8.01-5.57.33-6.92-1.43c-1.35-1.75-52.06-37.95-52.06-37.95l-61.06,40.2s-4.15.03-4.15-2.25c-2.77-1.1.99-6.59.99-6.59Z"/>
      </g>
      <polygon class="cls-9" points="56.92 140.46 56.24 136.3 57.61 136.3 56.92 140.46"/>
      <polygon class="cls-9" points="60.22 140.46 59.54 136.3 60.91 136.3 60.22 140.46"/>
      <polygon class="cls-9" points="65.79 140.46 65.11 136.3 66.47 136.3 65.79 140.46"/>
      <polygon class="cls-9" points="55.36 142.2 54.87 136.3 55.85 136.3 55.36 142.2"/>
      <polygon class="cls-9" points="58.7 141.01 58.21 136.3 59.19 136.3 58.7 141.01"/>
      <polygon class="cls-9" points="62.24 141.01 61.75 136.3 62.73 136.3 62.24 141.01"/>
      <polygon class="cls-9" points="64.09 141.01 63.6 136.3 64.58 136.3 64.09 141.01"/>
      <polygon class="cls-9" points="80.94 140.46 80.26 136.3 81.62 136.3 80.94 140.46"/>
      <polygon class="cls-9" points="84.24 140.46 83.56 136.3 84.92 136.3 84.24 140.46"/>
      <polygon class="cls-9" points="89.81 140.46 89.12 136.3 90.49 136.3 89.81 140.46"/>
      <polygon class="cls-9" points="79.38 142.2 78.89 136.3 79.87 136.3 79.38 142.2"/>
      <polygon class="cls-9" points="82.72 141.01 82.23 136.3 83.21 136.3 82.72 141.01"/>
      <polygon class="cls-9" points="86.26 141.01 85.77 136.3 86.74 136.3 86.26 141.01"/>
      <polygon class="cls-9" points="88.11 141.01 87.62 136.3 88.6 136.3 88.11 141.01"/>
    </g>
    <g>
      <path class="cls-5" d="m32.26,184.2c-.2-7.47,6.64-12.53,11.51-14.26,4.87-1.73,7.46-2.47,14.05-2.09,6.59.38,8.31,3.06,17.97,1.74,9.66-1.33,12.45-4.27,21.53-4.25,9.07.01,15.06,2.06,20.4,2.52s15.82,2.93,22.41,2.09c6.6-.84,17.38-4.33,21.59-4.56s13.68-1.62,18.41.42c4.73,2.04,8.68-.2,14.99-.42s13.87,2.71,16.83,4.56c5.26,3.28,11.31,7.58,4.57,14.55-1.15,3.29-5.62,4.36-5.62,4.36H34.95l-2.7-4.65Z"/>
      <path class="cls-4" d="m32.26,184.2c1.53-5.85,6.64-4.23,11.51-5.97,4.87-1.73,6.25.69,12.84,1.07,6.59.38,8.57,1.33,18.24,0,9.66-1.32,13.8-5.37,22.87-5.36,9.07.01,14.66,3.09,20,3.55,5.34.46,17.03,2.64,23.62,1.81,6.6-.83,14.5-1.89,18.71-2.12,4.21-.22,14.2-4.25,18.93-2.21,4.73,2.04,8.49,3.48,14.8,3.26,6.31-.22,12.02-3.43,16.23-2.38,6.01,1.5,13.24,1.67,6.5,8.63-1.15,3.29-5.62,4.36-5.62,4.36H34.95l-2.7-4.65Z"/>
      <path class="cls-5" d="m32.26,184.2h181.94c5.43,0,9.83,4.41,9.83,9.83v.2c0,5.43-4.41,9.83-9.83,9.83H32.26c-5.43,0-9.83-4.41-9.83-9.83v-.2c0-5.43,4.41-9.83,9.83-9.83Z"/>
      <path class="cls-12" d="m204.82,213.54H41.63c-5.18,0-9.38-4.2-9.38-9.38v-.09h181.94v.09c0,5.18-4.2,9.38-9.38,9.38Z"/>
    </g>
    <path class="cls-9" d="m66.41,75.57c0,.77-.63,1.4-1.4,1.4s-1.4-.63-1.4-1.4.63-1.4,1.4-1.4,1.4.63,1.4,1.4Z"/>
    <path class="cls-9" d="m83.34,69.69c0,.77-.63,1.4-1.4,1.4s-1.4-.63-1.4-1.4.63-1.4,1.4-1.4,1.4.63,1.4,1.4Z"/>
    <path class="cls-9" d="m63.64,94.44c0,.77-.63,1.4-1.4,1.4s-1.4-.63-1.4-1.4.63-1.4,1.4-1.4,1.4.63,1.4,1.4Z"/>
    <path class="cls-9" d="m47.21,86.41c0,.77-.63,1.4-1.4,1.4s-1.4-.63-1.4-1.4.63-1.4,1.4-1.4,1.4.63,1.4,1.4Z"/>
    <circle class="cls-9" cx="58.21" cy="60.23" r="1.4"/>
    <path class="cls-9" d="m34.53,63.03c0,.77-.63,1.4-1.4,1.4s-1.4-.63-1.4-1.4.63-1.4,1.4-1.4,1.4.63,1.4,1.4Z"/>
    <path class="cls-9" d="m26.32,87.82c0,.77-.63,1.4-1.4,1.4s-1.4-.63-1.4-1.4.63-1.4,1.4-1.4,1.4.63,1.4,1.4Z"/>
    <path class="cls-9" d="m86.32,52.6c0,.77-.63,1.4-1.4,1.4s-1.4-.63-1.4-1.4.63-1.4,1.4-1.4,1.4.63,1.4,1.4Z"/>
    <circle class="cls-9" cx="125.04" cy="48.39" r="1.4"/>
    <path class="cls-9" d="m112.78,64.43c0,.77-.63,1.4-1.4,1.4s-1.4-.63-1.4-1.4.63-1.4,1.4-1.4,1.4.63,1.4,1.4Z"/>
    <path class="cls-9" d="m103.4,49.79c0,.77-.63,1.4-1.4,1.4s-1.4-.63-1.4-1.4.63-1.4,1.4-1.4,1.4.63,1.4,1.4Z"/>
    <path class="cls-9" d="m136.43,68.29c0,.77-.63,1.4-1.4,1.4s-1.4-.63-1.4-1.4.63-1.4,1.4-1.4,1.4.63,1.4,1.4Z"/>
    <path class="cls-9" d="m146.11,57.42c0,.77-.63,1.4-1.4,1.4s-1.4-.63-1.4-1.4.63-1.4,1.4-1.4,1.4.63,1.4,1.4Z"/>
    <path class="cls-9" d="m150,94.44c0,.77-.63,1.4-1.4,1.4s-1.4-.63-1.4-1.4.63-1.4,1.4-1.4,1.4.63,1.4,1.4Z"/>
    <path class="cls-9" d="m160.28,71.1c0,.77-.63,1.4-1.4,1.4s-1.4-.63-1.4-1.4.63-1.4,1.4-1.4,1.4.63,1.4,1.4Z"/>
    <circle class="cls-9" cx="168" cy="52.6" r="1.4"/>
    <path class="cls-9" d="m178.92,66.89c0,.77-.63,1.4-1.4,1.4s-1.4-.63-1.4-1.4.63-1.4,1.4-1.4,1.4.63,1.4,1.4Z"/>
    <path class="cls-9" d="m196.64,54c0,.77-.63,1.4-1.4,1.4s-1.4-.63-1.4-1.4.63-1.4,1.4-1.4,1.4.63,1.4,1.4Z"/>
    <path class="cls-9" d="m173.9,83.61c0,.77-.63,1.4-1.4,1.4s-1.4-.63-1.4-1.4.63-1.4,1.4-1.4,1.4.63,1.4,1.4Z"/>
    <circle class="cls-9" cx="190.86" cy="82.21" r="1.4"/>
    <path class="cls-9" d="m197.9,113.14c0,.77-.63,1.4-1.4,1.4s-1.4-.63-1.4-1.4.63-1.4,1.4-1.4,1.4.63,1.4,1.4Z"/>
    <path class="cls-9" d="m188.6,100.47c0,.77-.63,1.4-1.4,1.4s-1.4-.63-1.4-1.4.63-1.4,1.4-1.4,1.4.63,1.4,1.4Z"/>
    <circle class="cls-9" cx="169.4" cy="108.55" r="1.4"/>
    <path class="cls-9" d="m33.66,107.39c0,.77-.63,1.4-1.4,1.4s-1.4-.63-1.4-1.4.63-1.4,1.4-1.4,1.4.63,1.4,1.4Z"/>
    <path class="cls-9" d="m21.1,116.3c0,.77-.63,1.4-1.4,1.4s-1.4-.63-1.4-1.4.63-1.4,1.4-1.4,1.4.63,1.4,1.4Z"/>
    <path class="cls-9" d="m19.7,139.64c0,.77-.63,1.4-1.4,1.4s-1.4-.63-1.4-1.4.63-1.4,1.4-1.4,1.4.63,1.4,1.4Z"/>
  </g>
</svg>