<?xml version="1.0" encoding="UTF-8"?>
<svg id="Layer_2" data-name="Layer 2" xmlns="http://www.w3.org/2000/svg" viewBox="0 0 697 255">
  <defs>
    <style>
      .cls-1 {
        fill: #ff5e14;
      }

      .cls-1, .cls-2, .cls-3, .cls-4, .cls-5, .cls-6, .cls-7, .cls-8, .cls-9, .cls-10, .cls-11, .cls-12, .cls-13, .cls-14, .cls-15, .cls-16, .cls-17, .cls-18, .cls-19, .cls-20, .cls-21, .cls-22, .cls-23, .cls-24, .cls-25, .cls-26, .cls-27, .cls-28, .cls-29, .cls-30, .cls-31, .cls-32, .cls-33, .cls-34, .cls-35, .cls-36, .cls-37, .cls-38, .cls-39, .cls-40, .cls-41, .cls-42, .cls-43, .cls-44, .cls-45, .cls-46 {
        stroke-width: 0px;
      }

      .cls-2 {
        fill: #ffe49c;
      }

      .cls-3 {
        fill: #6b0e0e;
      }

      .cls-4 {
        fill: #7d7d7d;
      }

      .cls-5 {
        fill: #b2b2b2;
      }

      .cls-6 {
        fill: #24b500;
      }

      .cls-7 {
        fill: #262626;
      }

      .cls-8 {
        fill: #3970cf;
      }

      .cls-9 {
        fill: #6298f5;
      }

      .cls-10 {
        fill: #77acb5;
      }

      .cls-11 {
        fill: #4b6d73;
      }

      .cls-12 {
        fill: #332018;
      }

      .cls-13 {
        fill: #5e5e5e;
      }

      .cls-14 {
        fill: #171717;
      }

      .cls-15 {
        fill: #436166;
      }

      .cls-17 {
        fill: #5c858c;
      }

      .cls-18 {
        fill: #bf0000;
      }

      .cls-19 {
        fill: #6d9ea6;
      }

      .cls-20 {
        fill: #1c3b5c;
      }

      .cls-21 {
        fill: #613d2d;
      }

      .cls-22 {
        opacity: .2;
      }

      .cls-23 {
        fill: gray;
      }

      .cls-24 {
        fill: #333;
      }

      .cls-25 {
        fill: #d61c1c;
      }

      .cls-26 {
        fill: #ccc;
      }

      .cls-27 {
        fill: #94360c;
      }

      .cls-28 {
        fill: #567b82;
      }

      .cls-29 {
        fill: #fff;
      }

      .cls-30 {
        fill: #38acff;
      }

      .cls-31 {
        fill: #a61616;
      }

      .cls-32 {
        fill: #dedede;
      }

      .cls-33 {
        fill: #ff5e5e;
      }

      .cls-34 {
        fill: #bf8452;
      }

      .cls-35 {
        fill: #66949c;
      }

      .cls-36 {
        fill: #5c0c0c;
      }

      .cls-37 {
        fill: #4385f5;
      }

      .cls-38 {
        fill: #ff4545;
      }

      .cls-39 {
        fill: #b81818;
      }

      .cls-40 {
        fill: #4a2e23;
      }

      .cls-41 {
        fill: #ff7373;
      }

      .cls-42 {
        fill: #828282;
      }

      .cls-43 {
        fill: #663f30;
      }

      .cls-44 {
        fill: #7cb3bd;
      }

      .cls-45 {
        fill: #fc0;
      }

      .cls-47 {
        opacity: .71;
      }

      .cls-46 {
        fill: #bd1919;
      }
    </style>
  </defs>
  <g id="fire_dark" data-name="fire dark">
    <g class="cls-47">
      <rect class="cls-23" x=".5" y=".5" width="696" height="254" rx="69.5" ry="69.5"/>
      <path class="cls-26" d="m627,1c38.05,0,69,30.95,69,69v115c0,38.05-30.95,69-69,69H70C31.95,254,1,223.05,1,185v-115C1,31.95,31.95,1,70,1h557m0-1H70C31.34,0,0,31.34,0,70v115c0,38.66,31.34,70,70,70h557c38.66,0,70-31.34,70-70v-115c0-38.66-31.34-70-70-70h0Z"/>
    </g>
    <g>
      <path class="cls-24" d="m282.25,96.64v6.92h-16.93v62.07h-21.23v-62.07h-17.03v-6.92h55.19Z"/>
      <path class="cls-24" d="m315.66,95.43c20.08,0,30.12,11.89,30.12,35.68s-10.23,35.68-30.68,35.68-30.68-12.16-30.68-36.49,10.41-34.87,31.23-34.87Zm-.56,5.51c-3.77,0-6.33,2.08-7.66,6.24-1.33,4.16-2,12.14-2,23.93s.67,19.77,2,23.93c1.33,4.16,3.88,6.24,7.66,6.24s6.33-2.08,7.66-6.24c1.33-4.16,2-12.14,2-23.93s-.67-19.73-2-23.91c-1.33-4.18-3.88-6.27-7.66-6.27Z"/>
      <path class="cls-24" d="m354.63,165.63v-68.99h29.67c7.72,0,13.88,1.63,18.5,4.88,4.62,3.25,6.92,7.61,6.92,13.07,0,8.36-4.95,13.8-14.86,16.32,5.09,1.89,8.38,3.96,9.88,6.22,1.5,2.26,2.52,6.64,3.06,13.14.64,7.75,1.94,12.87,3.89,15.37h-21.73c-1.38-3.2-2.07-7.19-2.07-11.98l-.1-4.09-.1-5.16c0-7.95-3.2-11.93-9.6-11.93h-3.44v33.16h-20.01Zm20.01-38.87h4.04c7.58,0,11.37-3.96,11.37-11.88s-3.79-11.88-11.37-11.88h-4.04v23.75Z"/>
      <path class="cls-24" d="m470.47,96.64v68.99h-15.31l-28.81-43.67v43.67h-6.72v-68.99h12.69l31.44,47.16v-47.16h6.72Z"/>
      <path class="cls-24" d="m513.33,96.64l19.21,68.99h-20.12l-4.09-14.96h-20.77l-4.4,14.96h-7.83l20.42-68.99h17.59Zm-23.8,47.11h16.93l-8.14-30.58-8.79,30.58Z"/>
      <path class="cls-24" d="m537.95,165.63v-68.99h28.61c20.32,0,30.48,11.52,30.48,34.57s-10.53,34.42-31.59,34.42h-27.5Zm20.01-5.71h5.26c4.82,0,8.15-2.08,10.01-6.24,1.85-4.16,2.78-11.68,2.78-22.57s-.92-18.4-2.75-22.54c-1.84-4.14-5.18-6.22-10.03-6.22h-5.26v57.57Z"/>
      <path class="cls-24" d="m634.08,95.43c20.08,0,30.12,11.89,30.12,35.68s-10.23,35.68-30.68,35.68-30.68-12.16-30.68-36.49,10.41-34.87,31.23-34.87Zm-.56,5.51c-3.77,0-6.33,2.08-7.66,6.24-1.33,4.16-2,12.14-2,23.93s.67,19.77,2,23.93c1.33,4.16,3.88,6.24,7.66,6.24s6.33-2.08,7.66-6.24c1.33-4.16,2-12.14,2-23.93s-.67-19.73-2-23.91c-1.33-4.18-3.88-6.27-7.66-6.27Z"/>
    </g>
    <g>
      <g>
        <path class="cls-21" d="m139.8,168.67l4.59,5.41-1.42-2.91s1.65,1.27,1.54.83c-.11-.44-.45-1.86-.45-1.86,0,0,2.56,3.18,2.91,2.78.35-.4-1.16-3.29-1.16-3.29,0,0,2.54,2.18,3.11,1.77.57-.41-1.59-3.53-1.59-3.53l3.64-.88s2.28,4.65,2.7,4.49c.42-.16-.84-4.94-.84-4.94l1.27,1.53-.31-1.27s2.79,1.13,3.02,1.01c.23-.12-.28-1.16-.28-1.16,0,0,3.57,2.27,3.89,2.03.32-.25-.8-3.29-.8-3.29,0,0,1.84,2.4,2.28,2.13.43-.27-.22-2.63-.22-2.63l1.8.54s1.89,2.71,2.22,2.5-.62-4.37-.62-4.37c0,0,1.78,1.85,2.16,1.72s.44-2.35.44-2.35l1.53-.37s3.8,3.77,3.49,2.6c-.31-1.17-.02-2.77-.02-2.77,0,0,3.37,3.95,3.19,2.71-.19-1.24-1.55-3.2-1.55-3.2,0,0,2.43,1.53,2.74,1.15s-.85-2.21-.85-2.21l1.1-.27s2.04,2.92,2.41,2.53c-.17-1.15-.98-2.88-.98-2.88,0,0,2.75,1.81,3.13,1.48.38-.33-.08-1.81-.08-1.81,0,0,2.73,2.22,2.96,1.87-1.03-1.38-2.03-3.53-2.03-3.53l-42.91,10.43Z"/>
        <path class="cls-12" d="m181.92,160.46l-40.39,9.82c-.7.17-1.4-.26-1.57-.95l-.16-.66,42.91-10.43.16.66c.17.7-.26,1.4-.95,1.57Z"/>
        <g>
          <rect class="cls-1" x="162.07" y="121.88" width="4.83" height="13.25" transform="translate(-25.7 42.5) rotate(-13.67)"/>
          <rect class="cls-27" x="164.1" y="125.17" width="1.5" height=".72" transform="translate(-24.99 42.51) rotate(-13.67)"/>
          <rect class="cls-27" x="163.61" y="126.33" width="1.5" height=".72" transform="translate(-25.26 42.39) rotate(-13.66)"/>
          <rect class="cls-27" x="164.92" y="128.52" width="1.5" height=".72" transform="translate(-25.75 42.77) rotate(-13.66)"/>
          <rect class="cls-27" x="161.6" y="124.67" width="1.5" height=".72" transform="translate(-24.93 41.87) rotate(-13.66)"/>
          <rect class="cls-22" x="160.81" y="122.58" width="4.83" height="1.54" transform="translate(-24.52 42.04) rotate(-13.66)"/>
          <path class="cls-1" d="m165.26,122.52l-4.31,1.05c-.46.11-.93-.16-1.04-.62l-.31-1.26c-.11-.45.18-.91.64-1.03l4.31-1.05c.46-.11.93.16,1.04.62l.31,1.26c.11.45-.18.91-.64,1.03Z"/>
        </g>
        <polygon class="cls-45" points="182.71 158.24 139.8 168.67 134.12 145.29 151.98 125.29 177.03 134.85 182.71 158.24"/>
        <rect class="cls-22" x="138.71" y="161.21" width="44.16" height=".65" transform="translate(-33.61 42.56) rotate(-13.66)"/>
        <rect class="cls-22" x="138.22" y="159.18" width="44.16" height=".65" transform="translate(-33.14 42.38) rotate(-13.66)"/>
        <rect class="cls-22" x="137.73" y="157.16" width="44.16" height=".65" transform="translate(-32.68 42.21) rotate(-13.66)"/>
        <rect class="cls-22" x="137.23" y="155.13" width="44.16" height=".65" transform="translate(-32.21 42.03) rotate(-13.66)"/>
        <rect class="cls-22" x="136.74" y="153.11" width="44.16" height=".65" transform="translate(-31.75 41.86) rotate(-13.66)"/>
        <rect class="cls-22" x="136.25" y="151.08" width="44.16" height=".65" transform="translate(-31.29 41.69) rotate(-13.66)"/>
        <rect class="cls-22" x="135.76" y="149.06" width="44.16" height=".65" transform="translate(-30.82 41.51) rotate(-13.66)"/>
        <rect class="cls-22" x="135.26" y="147.03" width="44.16" height=".65" transform="translate(-30.36 41.34) rotate(-13.66)"/>
        <rect class="cls-22" x="134.77" y="145.01" width="44.16" height=".65" transform="translate(-29.89 41.17) rotate(-13.66)"/>
        <rect class="cls-22" x="134.28" y="142.98" width="44.16" height=".65" transform="translate(-29.43 40.99) rotate(-13.66)"/>
        <rect class="cls-22" x="133.79" y="140.96" width="44.16" height=".65" transform="translate(-28.96 40.82) rotate(-13.66)"/>
        <rect class="cls-22" x="133.3" y="138.93" width="44.16" height=".65" transform="translate(-28.5 40.65) rotate(-13.66)"/>
        <rect class="cls-22" x="136.73" y="136.93" width="36.08" height=".65" transform="translate(-28.05 40.45) rotate(-13.66)"/>
        <rect class="cls-22" x="139.1" y="134.87" width="30.67" height=".65" transform="translate(-27.57 40.31) rotate(-13.66)"/>
        <rect class="cls-22" x="141.84" y="132.86" width="24.05" height=".65" transform="translate(-27.11 40.12) rotate(-13.66)"/>
        <rect class="cls-22" x="144.17" y="130.81" width="18.62" height=".65" transform="translate(-26.64 39.97) rotate(-13.66)"/>
        <rect class="cls-22" x="146.93" y="128.76" width="12.34" height=".65" transform="translate(-26.16 39.82) rotate(-13.66)"/>
        <rect class="cls-22" x="149.07" y="126.79" width="6.6" height=".65" transform="translate(-25.72 39.59) rotate(-13.66)"/>
        <g>
          <path class="cls-43" d="m164.41,145.38h6.42c.31,0,.56.25.56.56v15.09c0,.31-.25.56-.56.56h-6.42c-.31,0-.56-.25-.56-.56v-15.08c0-.31.25-.56.56-.56Z" transform="translate(-31.51 43.94) rotate(-13.66)"/>
          <rect class="cls-40" x="164.9" y="160.35" width="9.04" height="1.1" transform="translate(-33.21 44.58) rotate(-13.66)"/>
          <path class="cls-34" d="m166.34,153.3c.13.53-.2,1.06-.72,1.19-.53.13-1.06-.2-1.19-.72-.13-.53.2-1.06.72-1.19.53-.13,1.06.2,1.19.72Z"/>
        </g>
        <g>
          <g>
            <path class="cls-43" d="m140.71,148.14h6.13c.09,0,.16.07.16.16v9.81c0,.09-.07.16-.16.16h-6.13c-.09,0-.16-.07-.16-.16v-9.81c0-.09.07-.16.16-.16Z" transform="translate(-32.13 38.31) rotate(-13.67)"/>
            <rect class="cls-30" x="141.6" y="153.1" width="5.19" height="4.43" transform="translate(-32.61 38.45) rotate(-13.66)"/>
            <polygon class="cls-22" points="147.25 156.86 142.2 158.09 141.15 153.78 147.25 156.86"/>
            <rect class="cls-30" x="140.51" y="149.1" width="5.19" height="3.41" transform="translate(-31.57 38.07) rotate(-13.66)"/>
            <polygon class="cls-22" points="146.03 151.85 140.98 153.08 140.18 149.76 146.03 151.85"/>
          </g>
          <g>
            <rect class="cls-43" x="150.73" y="145.67" width="6.46" height="10.14" rx=".17" ry=".17" transform="translate(-31.25 40.64) rotate(-13.66)"/>
            <rect class="cls-30" x="151.78" y="150.63" width="5.19" height="4.43" transform="translate(-31.74 40.79) rotate(-13.66)"/>
            <polygon class="cls-22" points="157.42 154.39 152.38 155.61 151.33 151.3 157.42 154.39"/>
            <rect class="cls-30" x="150.68" y="146.63" width="5.19" height="3.41" transform="translate(-30.7 40.41) rotate(-13.66)"/>
            <polygon class="cls-22" points="156.21 149.38 151.16 150.61 150.35 147.29 156.21 149.38"/>
          </g>
        </g>
        <path class="cls-22" d="m177.63,137.33l-24.41-9.59c-.46-.18-.99-.05-1.31.32l-17.19,19.71-.6-2.48,17.86-19.99,25.05,9.56.6,2.48Z"/>
        <path class="cls-43" d="m130.23,148.15l21.12-24.13c.18-.21.48-.28.73-.17l29.16,11.88c.17.07.28.25.27.43l-.09.99c-.03.29-.32.47-.59.36l-27.63-11.19c-.6-.25-1.3-.08-1.72.41l-20.07,22.86c-.19.22-.53.19-.69-.06l-.54-.87c-.1-.16-.08-.37.04-.51Z"/>
        <path class="cls-43" d="m157.58,134.57c.42,1.71-.64,3.44-2.35,3.86-1.71.42-3.44-.63-3.86-2.35-.42-1.71.63-3.44,2.35-3.86,1.71-.42,3.44.63,3.86,2.35Z"/>
        <path class="cls-30" d="m157.07,134.69c.35,1.43-.53,2.88-1.96,3.23-1.43.35-2.88-.53-3.23-1.96s.53-2.88,1.96-3.23c1.43-.35,2.88.53,3.23,1.96Z"/>
        <path class="cls-22" d="m156.76,136.71c-.77,1.26-2.41,1.66-3.67.89-1.26-.77-1.66-2.41-.89-3.67l4.56,2.78Z"/>
        <rect class="cls-43" x="154.08" y="132.35" width=".8" height="5.93" transform="translate(-27.6 40.33) rotate(-13.67)"/>
        <rect class="cls-43" x="151.68" y="134.96" width="5.61" height=".75" transform="translate(-27.6 40.33) rotate(-13.67)"/>
        <path class="cls-21" d="m169.05,167.9c.14.59-.22,1.19-.81,1.34s-1.19-.22-1.34-.81.22-1.19.81-1.34,1.19.22,1.34.81Z"/>
        <path class="cls-21" d="m167.97,170.91c.07.28-.1.56-.38.63s-.56-.1-.63-.38.1-.56.38-.63.56.1.63.38Z"/>
        <path class="cls-21" d="m160.73,170.58c.06.25-.09.5-.34.56-.25.06-.5-.09-.56-.34-.06-.25.09-.5.34-.56.25-.06.5.09.56.34Z"/>
        <path class="cls-21" d="m156.52,173.16c.14.56-.21,1.12-.77,1.26-.56.14-1.12-.21-1.26-.77s.21-1.12.77-1.26,1.12.21,1.26.77Z"/>
        <path class="cls-21" d="m176.93,166.67c.06.26-.1.53-.36.59s-.53-.1-.59-.36.1-.53.36-.59.53.1.59.36Z"/>
        <path class="cls-21" d="m180.8,166.33c.14.58-.21,1.16-.79,1.3-.58.14-1.16-.21-1.3-.79-.14-.58.21-1.16.79-1.3.58-.14,1.16.21,1.3.79Z"/>
        <path class="cls-21" d="m183.8,165.76c.1.4-.15.8-.55.9-.4.1-.8-.15-.9-.55s.15-.8.55-.9.8.15.9.55Z"/>
        <path class="cls-21" d="m185,167.67c.05.19-.07.39-.26.43-.19.05-.39-.07-.43-.26-.05-.19.07-.39.26-.43.19-.05.39.07.43.26Z"/>
        <path class="cls-21" d="m183.32,162.79c.06.26-.1.53-.36.59-.26.06-.53-.1-.59-.36s.1-.53.36-.59.53.1.59.36Z"/>
        <path class="cls-21" d="m150.16,174.54c.08.31-.12.63-.43.7-.31.08-.63-.12-.7-.43s.12-.63.43-.7c.31-.08.63.12.7.43Z"/>
        <path class="cls-21" d="m151.91,170.73c.1.42-.16.84-.57.94-.42.1-.84-.16-.94-.57-.1-.42.16-.84.57-.94.42-.1.84.16.94.57Z"/>
        <path class="cls-21" d="m147.62,176.76c.11.47-.17.95-.65,1.06s-.95-.17-1.06-.65c-.11-.47.17-.95.65-1.06s.95.17,1.06.65Z"/>
      </g>
      <g>
        <path class="cls-10" d="m62.78,71.95c87.5,54.88,26.86,77.13,54.49,111.16-21.87-49.76,53.34-68.18,19.19-138.02l-73.68,26.86Z"/>
        <path class="cls-44" d="m136.48,45.14c1.07,2.92-14.56,11.31-34.91,18.72-20.35,7.42-37.7,11.06-38.77,8.14s14.56-11.31,34.91-18.72c20.35-7.42,37.7-11.06,38.77-8.14Z"/>
        <path class="cls-35" d="m132.03,47.53c.93,2.55-12.71,9.87-30.46,16.34-17.75,6.47-32.9,9.65-33.83,7.1-.93-2.55,12.71-9.87,30.46-16.34,17.75-6.47,32.9-9.65,33.83-7.1Z"/>
        <path class="cls-17" d="m123.2,52.27c.66,1.81-9.02,7-21.63,11.6-12.6,4.59-23.36,6.85-24.02,5.04-.66-1.81,9.02-7,21.63-11.6,12.6-4.59,23.36-6.85,24.02-5.04Z"/>
        <path class="cls-28" d="m116.28,55.98c.45,1.23-6.14,4.76-14.71,7.89-8.57,3.13-15.89,4.66-16.34,3.43-.45-1.23,6.14-4.76,14.71-7.89,8.57-3.13,15.89-4.66,16.34-3.43Z"/>
        <path class="cls-11" d="m108.93,59.92c.22.62-3.07,2.38-7.36,3.95-4.29,1.56-7.94,2.33-8.17,1.71-.22-.62,3.07-2.38,7.36-3.95,4.29-1.56,7.94-2.33,8.17-1.71Z"/>
        <path class="cls-15" d="m104.96,62.05c.1.28-1.41,1.1-3.39,1.82-1.97.72-3.66,1.07-3.76.79-.1-.28,1.41-1.1,3.39-1.82,1.97-.72,3.66-1.07,3.76-.79Z"/>
        <path class="cls-19" d="m72.63,78.41s21.68-1.48,43.68-13.66c-22.27,16.75-39.81,16.4-39.81,16.4l-3.87-2.74Z"/>
        <path class="cls-19" d="m142.57,60.59s-6.81,6.78-20.4,13.51c16.02-3.77,21.5-9.35,21.5-9.35l-1.1-4.17Z"/>
        <path class="cls-19" d="m92,93.7s21.29-2.23,38.25-13.27c-20.06,16.42-34.8,16.62-34.8,16.62l-3.45-3.36Z"/>
        <path class="cls-19" d="m144.48,90.98s-5.44,7.44-19.48,10.31c11.08.45,18.68-6.62,18.68-6.62l.81-3.69Z"/>
        <path class="cls-19" d="m103.67,85.2c14.18.8,31.07-11.93,31.07-11.93,0,0-18.83,9.27-31.07,11.93Z"/>
        <path class="cls-19" d="m107.27,101.29c16.16.13,23.52-8.48,23.52-8.48,0,0-10.32,6.19-23.52,8.48Z"/>
        <path class="cls-19" d="m110.62,110.34c11.07,2.07,17.17-2.95,17.17-2.95,0,0-7.84,2.99-17.17,2.95Z"/>
        <path class="cls-19" d="m113.13,127.76c7.24,3.05,12.15.53,12.15.53,0,0-5.79.88-12.15-.53Z"/>
        <path class="cls-19" d="m121.89,113.46c5.93.83,10.81.31,14.62-.67l.89-1.74c-4.23,1.11-9.65,2.17-15.51,2.41Z"/>
        <path class="cls-19" d="m117.05,134.14c2.34.33,4.52.44,6.53.41l.69-1.1c-2.29.34-4.71.59-7.22.7Z"/>
        <path class="cls-19" d="m111.48,157.25c.83.12,1.64.21,2.43.27l.08-.43c-.83.07-1.67.12-2.51.15Z"/>
        <path class="cls-19" d="m111.15,122.13c7.09,1.52,11.79.08,11.79.08,0,0-5.19-.13-12.25-1.68l.46,1.6Z"/>
        <path class="cls-19" d="m111.02,147.11c2.21.14,3.52-.08,3.52-.08,0,0-1.27-.21-3.39-.72l-.13.8Z"/>
      </g>
      <g>
        <rect class="cls-16" x="81.98" y="117.49" width="3.41" height="26.17" transform="translate(-65.42 173.27) rotate(-73.32)"/>
        <polygon class="cls-37" points="91.34 128.17 85.56 126.44 86.43 123.55 90.4 124.64 91.48 125.05 91.34 128.17"/>
        <path class="cls-9" d="m86.27,126.61l-.67-.2,1.89-1.95c.08-.08.2-.11.31-.08h0c.22.07.29.34.13.51l-1.67,1.72Z"/>
        <polygon class="cls-9" points="88.81 127.36 87.48 126.97 89.96 124.46 91.28 124.86 88.81 127.36"/>
        <polygon class="cls-8" points="89.68 127.63 89.93 124.85 86.43 123.55 90.4 124.64 91.48 125.05 90.49 125 89.68 127.63"/>
        <path class="cls-25" d="m91.39,128.11v-.07s-1.18-.36-1.18-.36l.4-2.91.88.26c.08-.48-.2-.95-.67-1.09l-5.2-1.56c-.48-.14-.99.13-1.14.61l-1.3,4.33-13.31-3.99-1.34,4.46,2.43.73c.51-1.32,1.96-2.04,3.33-1.63,1.38.41,2.18,1.81,1.89,3.19l5.66,1.7-.13.43,7.17,2.15c.02-.08.03-.15.06-.22.43-1.45,1.96-2.27,3.41-1.84,1.45.43,2.27,1.96,1.84,3.41-.02.07-.05.15-.08.22l.87.26,1.74-5.81-5.32-2.28Zm-5.82-1.71l.86-2.85,3.75,1.12-.49,2.96-4.11-1.23Z"/>
        <g>
          <path class="cls-46" d="m75.84,126.96l-4.41-1.32c-.54-.16-1.1.14-1.27.68h0s-1.11-.29-1.11-.29l-.53,1.78,2.43.73c.51-1.32,1.96-2.04,3.33-1.63,1.38.41,2.18,1.81,1.89,3.19l.43.13.36-1.19c.27-.88-.24-1.82-1.12-2.08Z"/>
          <path class="cls-46" d="m77.67,128.61l-.53,1.78,4.7,1.41-.13.43,7.17,2.15c.02-.08.03-.15.06-.22.43-1.45,1.96-2.27,3.41-1.84,1.45.43,2.27,1.96,1.84,3.41-.02.07-.05.15-.08.22l.36.11.4-1.32c.31-1.05-.28-2.16-1.33-2.47l-3.15-.94c-.56-.17-1.14.14-1.32.7h0s-11.38-3.4-11.38-3.4Z"/>
        </g>
        <path class="cls-38" d="m90.92,129.37l-6.7-2.01c-.24-.07-.38-.32-.3-.56h0c.07-.25.32-.38.56-.31l6.7,2.01c.24.07.38.32.3.56h0c-.07.25-.32.38-.56.31Z"/>
        <path class="cls-31" d="m85.72,127.54c-.21.68,2.03.61,2.03.61,0,0-1.83-1.29-2.03-.61Z"/>
        <path class="cls-25" d="m96.41,136.64l-1.44-.43,1.74-5.81h.01c.73.22,1.25,1.03,1.03,1.76l-1.34,4.48Z"/>
        <rect class="cls-46" x="94.49" y="134.06" width="3.37" height="1.5" transform="translate(-60.56 188.26) rotate(-73.33)"/>
        <path class="cls-31" d="m76.73,125.94l-4.37-1.31c-.96-.29-1.89.35-2.13,1.13l-.83,2.79.12.04.77-2.58c.22-.72,1.07-1.3,1.96-1.04l4.23,1.27c.89.27,1.38,1.25,1.16,1.97l-.77,2.58.28.08.83-2.79c.23-.78-.29-1.85-1.25-2.14Z"/>
        <path class="cls-31" d="m94.67,131.11l-3.22-.97c-.98-.29-2.01.25-2.3,1.2l-.86,2.86.16.05.78-2.59c.27-.89,1.21-1.4,2.1-1.13l3.23.97c.89.27,1.4,1.21,1.13,2.1l-.78,2.59.15.05.86-2.85c.29-.96-.27-1.97-1.26-2.27Z"/>
        <g>
          <path class="cls-25" d="m76.05,130.54l12.83,3.84c.02-.08.03-.15.06-.22.02-.07.05-.14.07-.21l-12.83-3.84c-.02.07-.03.14-.05.21-.02.07-.05.15-.08.22Z"/>
          <path class="cls-25" d="m70.88,128.75c.02-.07.05-.14.07-.21l-2.43-.73-.13.43,2.43.73c.02-.08.03-.15.06-.22Z"/>
        </g>
        <rect class="cls-31" x="79.85" y="129.14" width="4.65" height=".67" transform="translate(-65.43 171.05) rotate(-73.33)"/>
        <path class="cls-25" d="m70,122.87h0s-1.21,4.05-1.21,4.05c-.26-.08-.4-.39-.32-.64l.92-3.08c.08-.26.35-.4.6-.33Z"/>
        <rect class="cls-31" x="66.98" y="125.5" width="4.65" height=".23" transform="translate(-70.92 155.95) rotate(-73.32)"/>
        <rect class="cls-31" x="92.91" y="133.23" width="6.06" height=".21" transform="translate(-59.32 186.96) rotate(-73.32)"/>
        <polygon class="cls-36" points="97.32 137.25 95.15 136.6 95.64 134.99 97.54 135.55 97.32 137.25"/>
        <polygon class="cls-36" points="67.7 128.38 69.74 128.99 70.23 127.37 68.06 126.72 67.7 128.38"/>
        <polygon class="cls-33" points="81.92 131.53 76.22 129.82 76.17 130.11 81.83 131.8 81.92 131.53"/>
        <polygon class="cls-33" points="89.06 133.82 81.88 131.66 81.79 131.94 88.96 134.08 89.06 133.82"/>
        <polygon class="cls-33" points="71.01 128.41 70.01 128.11 69.93 128.38 70.91 128.68 71.01 128.41"/>
        <path class="cls-31" d="m89.48,130.09c.23-.77.48-1.53.33-2.33l-.03-.14-.16.03.03.14c.14.77-.11,1.5-.33,2.25l-.91,3.03h0s-.03.12-.11.16c-.02.01-.05.02-.08,0l-4.7-1.41s-.05-.03-.07-.05c-.03-.06-.01-.16,0-.19h0s.91-3.03.91-3.03c.22-.75.63-1.44,1.17-2l.1-.1-.12-.11-.1.1c-.56.58-.98,1.29-1.21,2.06l-.91,3.03h0s-.06.19.01.32c.03.06.09.11.17.13l4.7,1.41c.07.02.15.02.21-.02.13-.07.17-.24.18-.26h0l.92-3.03Z"/>
        <path class="cls-3" d="m95.39,133.92c-.15.5-.44.86-.64.8-.2-.06-.25-.52-.1-1.02.15-.5.44-.86.64-.8.2.06.25.52.1,1.02Z"/>
        <path class="cls-2" d="m95.35,133.91c-.12.39-.34.67-.5.62-.16-.05-.19-.4-.08-.79.12-.39.34-.67.5-.62.16.05.19.4.08.79Z"/>
        <path class="cls-3" d="m70.57,127.47h0c-.23-.07-.35-.31-.29-.53l.32-1.07c.07-.23.3-.35.53-.29h0c.23.07.35.31.29.53l-.32,1.07c-.07.23-.3.35-.53.29Z"/>
        <path class="cls-18" d="m70.61,127.36h0c-.2-.06-.31-.27-.25-.47l.28-.93c.06-.2.27-.31.46-.25h0c.2.06.31.27.25.47l-.28.93c-.06.2-.27.31-.46.25Z"/>
        <path class="cls-42" d="m85.87,127.58c-.15.5,1.49.45,1.49.45,0,0-1.35-.95-1.49-.45Z"/>
        <path class="cls-20" d="m86.13,127.66s-.05.06-.09.05c-.04-.01-.06-.05-.05-.09.01-.04.05-.06.09-.05.04.01.06.05.05.09Z"/>
        <path class="cls-14" d="m96.78,132.32l.73.22.06-.2-.73-.22c-.07-.02-.14,0-.16.06h0c-.02.06.03.12.1.14Z"/>
        <path class="cls-14" d="m96.64,132.79l.73.22.06-.2-.73-.22c-.07-.02-.14,0-.16.06h0c-.02.06.03.12.1.14Z"/>
        <path class="cls-14" d="m96.5,133.26l.73.22.06-.2-.73-.22c-.07-.02-.14,0-.16.06h0c-.02.06.03.12.1.14Z"/>
        <path class="cls-14" d="m96.36,133.73l.73.22.06-.2-.73-.22c-.07-.02-.14,0-.16.06h0c-.02.06.03.12.1.14Z"/>
        <path class="cls-14" d="m96.22,134.2l.73.22.06-.2-.73-.22c-.07-.02-.14,0-.16.06h0c-.02.06.03.12.1.14Z"/>
        <path class="cls-14" d="m96.08,134.67l.73.22.06-.2-.73-.22c-.07-.02-.14,0-.16.06h0c-.02.06.03.12.1.14Z"/>
        <rect class="cls-4" x="70.56" y="123.02" width=".94" height=".4" transform="translate(-67.38 155.93) rotate(-73.33)"/>
        <rect class="cls-13" x="70.91" y="122.76" width=".39" height=".4" transform="translate(-67.07 155.82) rotate(-73.33)"/>
        <rect class="cls-4" x="81.51" y="126.3" width=".94" height=".4" transform="translate(-62.71 168.76) rotate(-73.33)"/>
        <rect class="cls-4" x="76.53" y="117.5" width=".42" height="13.44" transform="translate(-64.27 162.08) rotate(-73.32)"/>
        <rect class="cls-13" x="81.87" y="126.04" width=".39" height=".4" transform="translate(-62.41 168.65) rotate(-73.33)"/>
        <path class="cls-7" d="m93.75,135.52c-.36,1.21-1.63,1.89-2.84,1.53-1.21-.36-1.89-1.63-1.53-2.84.36-1.21,1.63-1.89,2.84-1.53,1.21.36,1.89,1.63,1.53,2.84Z"/>
        <path class="cls-5" d="m92.76,135.22c-.2.66-.9,1.04-1.56.84-.66-.2-1.04-.9-.84-1.56.2-.66.9-1.04,1.56-.84.66.2,1.04.9.84,1.56Z"/>
        <path class="cls-42" d="m92.13,135.85c-.55.3-1.24.09-1.54-.46-.3-.55-.09-1.24.46-1.54s.24.45.54,1,1.09.7.54,1Z"/>
        <path class="cls-32" d="m91.8,134.94c-.04.13-.18.2-.3.16-.13-.04-.2-.18-.16-.3.04-.13.18-.2.3-.16.13.04.2.18.16.3Z"/>
        <path class="cls-29" d="m91.62,133.71c1.48.17,1,1.67,1,1.67,0,0,.17-1.33-1-1.67Z"/>
        <path class="cls-7" d="m75.73,130.12c-.36,1.21-1.63,1.89-2.84,1.53s-1.89-1.63-1.53-2.84,1.63-1.89,2.84-1.53c1.21.36,1.89,1.63,1.53,2.84Z"/>
        <path class="cls-5" d="m74.74,129.82c-.2.66-.89,1.04-1.56.84-.66-.2-1.04-.89-.84-1.56.2-.66.89-1.04,1.56-.84.66.2,1.04.89.84,1.56Z"/>
        <path class="cls-42" d="m74.1,130.45c-.55.3-1.24.09-1.54-.46s-.09-1.24.46-1.54c.55-.3.24.45.54,1,.3.55,1.09.7.54,1Z"/>
        <path class="cls-32" d="m73.78,129.54c-.04.13-.18.2-.3.16-.13-.04-.2-.18-.16-.3.04-.13.18-.2.3-.16.13.04.2.18.16.3Z"/>
        <path class="cls-29" d="m73.6,128.31c1.48.17,1,1.67,1,1.67,0,0,.17-1.33-1-1.67Z"/>
        <polygon class="cls-38" points="91.63 128.36 91.76 128.8 96.51 130.56 91.63 128.36"/>
        <path class="cls-41" d="m96.97,130.7c.81.29.68,1.37.68,1.37,0,0-.15-.9-.68-1.37Z"/>
        <path class="cls-41" d="m95.67,133.36l-.08-.61c-.02-.16-.07-.32-.15-.46-.17-.28-.44-.5-.76-.61l-3.28-1.01,3.29,1.18c.08.03.15.07.22.11.29.18.49.48.58.81l.17.6Z"/>
        <path class="cls-41" d="m77.56,128.05l-.08-.61c-.02-.16-.07-.32-.15-.46-.17-.28-.44-.5-.76-.61l-4.16-1.27,4.17,1.44c.08.03.15.07.22.11.29.18.49.48.58.81l.17.6Z"/>
        <path class="cls-41" d="m91.44,124.9l-.1-.27c-.1-.28-.34-.5-.63-.59l-4.61-1.38,4.61,1.53c.2.07.38.2.49.37l.23.33Z"/>
        <path class="cls-39" d="m84.09,126.23h0c-.14-.04-.21-.19-.17-.32l.91-3.04c.04-.14.18-.21.32-.17h0c.14.04.21.19.17.32l-.91,3.04c-.04.14-.18.21-.32.17Z"/>
        <path class="cls-29" d="m86.17,127.5c.3.14.99.47.99.47,0,0-.56-.45-.99-.47Z"/>
      </g>
      <g>
        <path class="cls-6" d="m172.82,76.04c-3.29,6.68-8.85,10.67-12.42,8.91-3.56-1.76-3.79-8.59-.49-15.27,3.29-6.68,8.85-10.66,12.41-8.91,3.57,1.76,3.79,8.6.5,15.27Z"/>
        <path class="cls-43" d="m165.62,73.36l-7.99,15.05.76-.13-.05,1.37,1.18-.43,6.91-15.45c.42-.96-.31-1.32-.82-.41Z"/>
      </g>
      <g>
        <rect class="cls-21" x="132.8" y="183.96" width="62.52" height="6.6"/>
        <path class="cls-6" d="m218.57,182.94h-25.69v1.33c0,2.32-1.88,4.21-4.21,4.21h-49.14c-2.32,0-4.21-1.88-4.21-4.21v-1.33H42.54c-5.25,0-9.51,4.26-9.51,9.51v.19c0,5.25,4.26,9.51,9.51,9.51h176.02c5.25,0,9.51-4.26,9.51-9.51v-.19c0-5.25-4.26-9.51-9.51-9.51Z"/>
        <path class="cls-21" d="m209.49,211.32H51.62c-5.01,0-9.07-4.06-9.07-9.07v-.09h176.02v.09c0,5.01-4.06,9.07-9.07,9.07Z"/>
      </g>
    </g>
  </g>
</svg>